<svg xmlns="http://www.w3.org/2000/svg" viewBox="0 0 512 512"><defs><radialGradient id="b" cx="428.5" cy="55.1" r="501" gradientUnits="userSpaceOnUse"><stop offset=".1" stop-color="#ffbd4f"/><stop offset=".2" stop-color="#ffac31"/><stop offset=".3" stop-color="#ff9d17"/><stop offset=".3" stop-color="#ff980e"/><stop offset=".4" stop-color="#ff563b"/><stop offset=".5" stop-color="#ff3750"/><stop offset=".7" stop-color="#f5156c"/><stop offset=".8" stop-color="#eb0878"/><stop offset=".9" stop-color="#e50080"/></radialGradient><radialGradient id="c" cx="245.4" cy="259.9" r="501" gradientUnits="userSpaceOnUse"><stop offset=".3" stop-color="#960e18"/><stop offset=".3" stop-color="#b11927" stop-opacity=".7"/><stop offset=".4" stop-color="#db293d" stop-opacity=".3"/><stop offset=".5" stop-color="#f5334b" stop-opacity=".1"/><stop offset=".5" stop-color="#ff3750" stop-opacity="0"/></radialGradient><radialGradient id="d" cx="305.8" cy="-58.6" r="363" gradientUnits="userSpaceOnUse"><stop offset=".1" stop-color="#fff44f"/><stop offset=".3" stop-color="#ffdc3e"/><stop offset=".5" stop-color="#ff9d12"/><stop offset=".5" stop-color="#ff980e"/></radialGradient><radialGradient id="e" cx="190" cy="390.8" r="238.6" gradientUnits="userSpaceOnUse"><stop offset=".3" stop-color="#3a8ee6"/><stop offset=".5" stop-color="#5c79f0"/><stop offset=".7" stop-color="#9059ff"/><stop offset="1" stop-color="#c139e6"/></radialGradient><radialGradient id="f" cx="252.2" cy="201.3" r="126.5" gradientTransform="translate(-48 31)" gradientUnits="userSpaceOnUse"><stop offset=".2" stop-color="#9059ff" stop-opacity="0"/><stop offset=".3" stop-color="#8c4ff3" stop-opacity=".1"/><stop offset=".8" stop-color="#7716a8" stop-opacity=".5"/><stop offset="1" stop-color="#6e008b" stop-opacity=".6"/></radialGradient><radialGradient id="g" cx="239.1" cy="34.6" r="171.6" gradientUnits="userSpaceOnUse"><stop offset="0" stop-color="#ffe226"/><stop offset=".1" stop-color="#ffdb27"/><stop offset=".3" stop-color="#ffc82a"/><stop offset=".5" stop-color="#ffa930"/><stop offset=".7" stop-color="#ff7e37"/><stop offset=".8" stop-color="#ff7139"/></radialGradient><radialGradient id="h" cx="374" cy="-74.3" r="732.2" gradientUnits="userSpaceOnUse"><stop offset=".1" stop-color="#fff44f"/><stop offset=".5" stop-color="#ff980e"/><stop offset=".6" stop-color="#ff5634"/><stop offset=".7" stop-color="#ff3647"/><stop offset=".9" stop-color="#e31587"/></radialGradient><radialGradient id="i" cx="304.6" cy="7.1" r="536.4" gradientTransform="rotate(84 303 4)" gradientUnits="userSpaceOnUse"><stop offset="0" stop-color="#fff44f"/><stop offset=".1" stop-color="#ffe847"/><stop offset=".2" stop-color="#ffc830"/><stop offset=".3" stop-color="#ff980e"/><stop offset=".4" stop-color="#ff8b16"/><stop offset=".5" stop-color="#ff672a"/><stop offset=".6" stop-color="#ff3647"/><stop offset=".7" stop-color="#e31587"/></radialGradient><radialGradient id="j" cx="235" cy="98.1" r="457.1" gradientUnits="userSpaceOnUse"><stop offset=".1" stop-color="#fff44f"/><stop offset=".5" stop-color="#ff980e"/><stop offset=".6" stop-color="#ff5634"/><stop offset=".7" stop-color="#ff3647"/><stop offset=".9" stop-color="#e31587"/></radialGradient><radialGradient id="k" cx="355.7" cy="124.9" r="500.3" gradientUnits="userSpaceOnUse"><stop offset=".1" stop-color="#fff44f"/><stop offset=".2" stop-color="#ffe141"/><stop offset=".5" stop-color="#ffaf1e"/><stop offset=".6" stop-color="#ff980e"/></radialGradient><linearGradient id="a" x1="446.9" y1="76.8" x2="47.9" y2="461.8" gradientUnits="userSpaceOnUse"><stop offset=".1" stop-color="#fff44f"/><stop offset=".1" stop-color="#ffe847"/><stop offset=".2" stop-color="#ffc830"/><stop offset=".4" stop-color="#ff980e"/><stop offset=".4" stop-color="#ff8b16"/><stop offset=".5" stop-color="#ff672a"/><stop offset=".5" stop-color="#ff3647"/><stop offset=".7" stop-color="#e31587"/></linearGradient><linearGradient id="l" x1="442.1" y1="74.8" x2="102.6" y2="414.3" gradientUnits="userSpaceOnUse"><stop offset=".2" stop-color="#fff44f" stop-opacity=".8"/><stop offset=".3" stop-color="#fff44f" stop-opacity=".6"/><stop offset=".5" stop-color="#fff44f" stop-opacity=".2"/><stop offset=".6" stop-color="#fff44f" stop-opacity="0"/></linearGradient></defs><path d="M479 166c-11-25-32-52-49-60a249 249 0 0 1 25 73c-27-68-73-95-111-155a255 255 0 0 1-8-14 44 44 0 0 1-4-9 1 1 0 0 0 0-1 1 1 0 0 0-1 0c-60 35-81 101-83 134a120 120 0 0 0-66 25 71 71 0 0 0-6-5 111 111 0 0 1-1-58c-25 11-44 29-58 44-9-12-9-52-8-60l-8 4a175 175 0 0 0-24 21 210 210 0 0 0-22 26 203 203 0 0 0-32 73l-1 2-2 15a229 229 0 0 0-4 34v1a240 240 0 0 0 477 40l1-9c5-41 0-84-15-121zM202 355l3 1-3-1zm55-145zm198-31z" fill="url(#a)"/><path d="M479 166c-11-25-32-52-49-60 14 26 22 53 25 72v1a207 207 0 0 1-206 279c-113-3-212-87-231-197-3-17 0-26 2-40-2 11-3 14-4 34v1a240 240 0 0 0 477 40l1-9c5-41 0-84-15-121z" fill="url(#b)"/><path d="M479 166c-11-25-32-52-49-60 14 26 22 53 25 72v1a207 207 0 0 1-206 279c-113-3-212-87-231-197-3-17 0-26 2-40-2 11-3 14-4 34v1a240 240 0 0 0 477 40l1-9c5-41 0-84-15-121z" fill="url(#c)"/><path d="m362 195 1 1a130 130 0 0 0-22-29C266 92 322 5 331 0c-60 35-81 101-83 134l9-1c45 0 84 25 105 62z" fill="url(#d)"/><path d="M257 210c-1 6-22 26-29 26-68 0-80 41-80 41 3 35 28 64 57 79l4 2 7 3a107 107 0 0 0 31 6c120 6 143-143 57-186 22-4 45 5 58 14-21-37-60-62-105-62l-9 1a120 120 0 0 0-66 25l17 16c16 16 58 33 58 35z" fill="url(#e)"/><path d="M257 210c-1 6-22 26-29 26-68 0-80 41-80 41 3 35 28 64 57 79l4 2 7 3a107 107 0 0 0 31 6c120 6 143-143 57-186 22-4 45 5 58 14-21-37-60-62-105-62l-9 1a120 120 0 0 0-66 25l17 16c16 16 58 33 58 35z" fill="url(#f)"/><path d="m171 151 5 3a111 111 0 0 1-1-58c-25 11-44 29-58 44 1 0 36 0 54 11z" fill="url(#g)"/><path d="M18 261a242 242 0 0 0 231 197 207 207 0 0 0 206-279c8 56-20 110-64 146-86 71-169 43-186 31l-3-1c-50-24-71-70-67-110-42 0-57-35-57-35s38-28 89-4c46 22 90 4 90 4 0-2-42-19-58-35l-17-16a71 71 0 0 0-6-5l-5-3c-18-11-52-11-54-11-9-12-9-51-8-60l-8 4a175 175 0 0 0-24 21 210 210 0 0 0-22 26 203 203 0 0 0-32 73c0 1-9 38-5 57z" fill="url(#h)"/><path d="M341 167a130 130 0 0 1 22 29 46 46 0 0 1 4 3c55 50 26 121 24 126 44-36 72-90 64-146-27-68-73-95-111-155a255 255 0 0 1-8-14 44 44 0 0 1-4-9 1 1 0 0 0 0-1 1 1 0 0 0-1 0c-9 5-65 92 10 167z" fill="url(#i)"/><path d="M367 199a46 46 0 0 0-4-3l-1-1c-13-9-36-18-58-15 86 44 63 193-57 187a107 107 0 0 1-31-6 131 131 0 0 1-11-5c17 12 99 39 186-31 2-5 31-76-24-126z" fill="url(#j)"/><path d="M148 277s12-41 80-41c7 0 28-20 29-26s-44 18-90-4c-51-24-89 4-89 4s15 35 57 35c-4 40 16 85 67 110l3 1c-29-15-54-44-57-79z" fill="url(#k)"/><path d="M479 166c-11-25-32-52-49-60a249 249 0 0 1 25 73c-27-68-73-95-111-155a255 255 0 0 1-8-14 44 44 0 0 1-4-9 1 1 0 0 0 0-1 1 1 0 0 0-1 0c-60 35-81 101-83 134l9-1c45 0 84 25 105 62-13-9-36-18-58-14 86 43 63 192-57 186a107 107 0 0 1-31-6 131 131 0 0 1-11-5l-3-1 3 1c-29-15-54-44-57-79 0 0 12-41 80-41 7 0 28-20 29-26 0-2-42-19-58-35l-17-16a71 71 0 0 0-6-5 111 111 0 0 1-1-58c-25 11-44 29-58 44-9-12-9-52-8-60l-8 4a175 175 0 0 0-24 21 210 210 0 0 0-22 26 203 203 0 0 0-32 73l-1 2-2 15a279 279 0 0 0-4 34v1a240 240 0 0 0 477 40l1-9c5-41 0-84-15-121zm-24 13z" fill="url(#l)"/></svg>