<svg fill="none" xmlns="http://www.w3.org/2000/svg" viewBox="0 0 18 12"><path d="M9 9.5c.97 0 1.8-.34 2.48-1.02A3.38 3.38 0 0 0 12.5 6c0-.97-.34-1.8-1.02-2.48A3.38 3.38 0 0 0 9 2.5c-.97 0-1.8.34-2.48 1.02A3.38 3.38 0 0 0 5.5 6c0 .97.34 1.8 1.02 2.48C7.2 9.16 8.02 9.5 9 9.5ZM9 8c-.56 0-1.03-.2-1.42-.58A1.93 1.93 0 0 1 7 6a1.98 1.98 0 0 1 2-2c.56 0 1.03.2 1.42.58.39.4.58.86.58 1.42 0 .56-.2 1.03-.58 1.42-.4.39-.86.58-1.42.58Zm0 4a9.52 9.52 0 0 1-5.41-1.64A9.62 9.62 0 0 1 0 6a9.62 9.62 0 0 1 3.59-4.36A9.52 9.52 0 0 1 9 0c1.98 0 3.78.55 5.41 1.64A9.62 9.62 0 0 1 18 6a9.62 9.62 0 0 1-3.59 4.36A9.52 9.52 0 0 1 9 12Zm0-1.5c1.56 0 3-.4 4.31-1.2A8.09 8.09 0 0 0 16.35 6a8.09 8.09 0 0 0-3.04-3.3A8.12 8.12 0 0 0 9 1.5c-1.56 0-3 .4-4.31 1.2A8.08 8.08 0 0 0 1.65 6a8.08 8.08 0 0 0 3.04 3.3C6 10.1 7.44 10.5 9 10.5Z" fill="#F29900"/></svg>