<svg xmlns="http://www.w3.org/2000/svg" xmlns:xlink="http://www.w3.org/1999/xlink" viewBox="195 190 135 135"><defs><linearGradient id="s-a" x1="132.6" x2="134.4" y1="111.7" y2="-105.3" xlink:href="#s-b"><stop offset="0" stop-color="#d2d2d2" /><stop offset=".5" stop-color="#f2f2f2" /><stop offset="1" stop-color="#fff" /></linearGradient><linearGradient id="s-b" gradientUnits="userSpaceOnUse" /><linearGradient id="s-c" x1="65.4" x2="67.4" y1="115.7" y2="17.1" xlink:href="#s-b"><stop offset="0" stop-color="#005ad5" /><stop offset=".2" stop-color="#0875f0" /><stop offset=".3" stop-color="#218cee" /><stop offset=".6" stop-color="#27a5f3" /><stop offset=".8" stop-color="#25aaf2" /><stop offset="1" stop-color="#21aaef" /></linearGradient><linearGradient id="s-d" x1="158.7" x2="176.3" y1="96.7" y2="79.5" xlink:href="#s-b"><stop offset="0" stop-color="#c72e24" /><stop offset="1" stop-color="#fd3b2f" /></linearGradient><radialGradient id="s-i" cx="-69.9" cy="69.3" r="54" gradientTransform="matrix(.9 -.01 .04 2.72 -9 -120)" xlink:href="#s-b"><stop offset="0" stop-color="#24a5f3" stop-opacity="0" /><stop offset="1" stop-color="#1e8ceb" /></radialGradient><radialGradient id="s-j" cx="109.3" cy="13.8" r="93.1" gradientTransform="matrix(-.02 1.1 -1.04 -.02 137 -115)" xlink:href="#s-b"><stop offset="0" stop-opacity="0" /><stop offset="1" stop-color="#5488d6" stop-opacity="0" /><stop offset="1" stop-color="#5d96eb" /></radialGradient></defs><rect width="220" height="220" x="22" y="-107" fill="url(#s-a)" ry="49" transform="matrix(.57 0 0 .57 187 256)" /><g transform="translate(194 190)"><circle cx="67.8" cy="67.7" fill="url(#s-c)" paint-order="stroke fill markers" r="54" /><circle cx="-69.9" cy="69.3" fill="url(#s-i)" transform="translate(138 -2)" r="54" /></g><ellipse cx="120" cy="14.2" fill="url(#s-j)" rx="93.1" ry="93.7" transform="matrix(.58 0 0 .58 192 250)" /><g transform="matrix(.58 0 0 .57 197 182)"><path fill="#cac7c8" d="M46 192h1l72-48-7-9-66 57Z" /><path fill="#fbfffc" d="M46 191v1l66-57-7-9-59 65Z" /><path fill="url(#s-d)" d="m119 144-7-9 66-57-59 66Z" /><path fill="#fb645c" d="m105 126 7 9 66-57-1-1-72 49Z" /></g><path stroke="#fff" stroke-linecap="round" stroke-miterlimit="1" stroke-width="1.3" d="m287 278 3-2m-12-17 8-2m-8-3h4m-4-13 8 2m-8 3h4m-1-13 7 3m-4-11 7 4m-2-11 6 6m0-12 6 7m1-11 4 6m4-10 3 7m5-9 2 7m15-7-1 7m10-5-3 7m11-4-4 7m11-2-5 6m16 7-7 4m10 4-7 3m10 6-8 1m8 16-8-2m5 10-7-3m4 11-7-4m2 11-6-5m0 11-5-6m-2 11-4-7m-4 11-3-8m-6 10-1-8m-16 8 2-8m-10 5 3-7m-11 4 4-7m-11 2 5-6m-8 3 3-3m4 8 2-3m5 8 2-4m6 7 1-4m8 5v-4m8 4v-4m9 3-1-4m9 1-2-4m9 0-2-4m9-2-3-3m8-4-3-2m8-5-4-2m7-6-4-1m5-8h-4m4-8h-4m3-9-4 1m1-9-4 2m-1-9-3 2m-2-9-3 3m-4-8-2 3m-5-8-2 4m-6-6-1 3m-8-5v4m-8-4v4m-9-2 1 3m-9 0 2 3m-9 1 2 3m-9 2 3 3m-8 4 3 2m-8 5 4 2m-7 6 4 1m-4 25 4-1m-2 5 7-3m-6 7 4-2m-2 6 7-4m-13-21h8m41-41v-8m0 99v-8m49-42h-8" transform="translate(-65 8)" /></svg>
