<svg width="20" height="19" viewBox="0 0 20 19" fill="none" xmlns="http://www.w3.org/2000/svg">
<path d="M8.61734 10.265C8.98494 10.7565 9.45393 11.1631 9.9925 11.4573C10.5311 11.7516 11.1266 11.9266 11.7388 11.9704C12.3509 12.0142 12.9653 11.9259 13.5403 11.7114C14.1153 11.4969 14.6375 11.1613 15.0713 10.7273L17.6393 8.15935C18.4189 7.35216 18.8502 6.27106 18.8405 5.1489C18.8307 4.02674 18.3806 2.9533 17.5871 2.15979C16.7936 1.36627 15.7202 0.916163 14.598 0.906412C13.4758 0.896661 12.3947 1.32804 11.5876 2.10765L10.1153 3.57136M12.0397 8.54747C11.6721 8.05603 11.2031 7.6494 10.6646 7.35515C10.126 7.06091 9.53044 6.88593 8.9183 6.84209C8.30616 6.79825 7.69175 6.88657 7.11675 7.10107C6.54174 7.31556 6.01959 7.65121 5.58571 8.08524L3.01781 10.6531C2.2382 11.4603 1.80682 12.5414 1.81657 13.6636C1.82632 14.7858 2.27643 15.8592 3.06994 16.6527C3.86346 17.4462 4.9369 17.8963 6.05906 17.9061C7.18122 17.9158 8.26232 17.4845 9.06951 16.7048L10.5332 15.2411" stroke="black" stroke-width="1.7" stroke-linecap="round" stroke-linejoin="round"/>
</svg>
