<svg width="20" height="19" viewBox="0 0 20 19" fill="none" xmlns="http://www.w3.org/2000/svg">
<path d="M10.4708 10.9859C10.0589 10.7609 9.54245 10.9124 9.31737 11.3243C9.0923 11.7363 9.2438 12.2527 9.65577 12.4778L10.4708 10.9859ZM11.4275 12.0802L11.3668 12.928L11.4275 12.0802ZM14.7602 10.837L14.1591 10.2359L14.159 10.236L14.7602 10.837ZM17.3282 8.26897L17.9292 8.87001C17.9327 8.86653 17.9361 8.86302 17.9396 8.85948L17.3282 8.26897ZM11.2763 2.21707L10.6857 1.60561L10.677 1.61428L11.2763 2.21707ZM9.20466 3.07803C8.87175 3.40901 8.87018 3.9472 9.20116 4.28011C9.53213 4.61302 10.0703 4.61459 10.4032 4.28362L9.20466 3.07803ZM9.5069 8.08617C9.91886 8.31125 10.4353 8.15974 10.6604 7.74778C10.8854 7.33581 10.7339 6.81938 10.322 6.59431L9.5069 8.08617ZM6.80443 7.21007L6.50735 6.41368L6.50735 6.41368L6.80443 7.21007ZM5.27334 8.19428L5.87438 8.79532L5.87449 8.79521L5.27334 8.19428ZM2.70535 10.7623L2.10431 10.1612C2.10083 10.1647 2.09738 10.1682 2.09396 10.1718L2.70535 10.7623ZM8.75725 16.8142L9.34776 17.4256C9.3513 17.4222 9.35481 17.4187 9.3583 17.4152L8.75725 16.8142ZM10.8221 15.9515C11.154 15.6195 11.154 15.0813 10.8221 14.7494C10.4901 14.4174 9.95192 14.4174 9.61997 14.7494L10.8221 15.9515ZM2.13602 4.54564C1.66658 4.54564 1.28602 4.92619 1.28602 5.39564C1.28602 5.86508 1.66658 6.24564 2.13602 6.24564V4.54564ZM3.58202 6.24564C4.05146 6.24564 4.43202 5.86508 4.43202 5.39564C4.43202 4.92619 4.05146 4.54564 3.58202 4.54564V6.24564ZM6.98688 1.42269C6.98688 0.953247 6.60632 0.572689 6.13688 0.572689C5.66744 0.572689 5.28688 0.953247 5.28688 1.42269H6.98688ZM5.28688 2.86869C5.28688 3.33813 5.66744 3.71869 6.13688 3.71869C6.60632 3.71869 6.98688 3.33813 6.98688 2.86869H5.28688ZM18.1092 14.2729C18.5787 14.2729 18.9592 13.8924 18.9592 13.4229C18.9592 12.9535 18.5787 12.5729 18.1092 12.5729V14.2729ZM16.6632 12.5729C16.1938 12.5729 15.8132 12.9535 15.8132 13.4229C15.8132 13.8924 16.1938 14.2729 16.6632 14.2729V12.5729ZM13.2589 17.3959C13.2589 17.8653 13.6395 18.2459 14.1089 18.2459C14.5784 18.2459 14.9589 17.8653 14.9589 17.3959H13.2589ZM14.9589 15.9499C14.9589 15.4805 14.5784 15.0999 14.1089 15.0999C13.6395 15.0999 13.2589 15.4805 13.2589 15.9499H14.9589ZM9.65577 12.4778C9.96531 12.6469 10.2293 12.7606 10.5295 12.8288C10.804 12.8912 11.0847 12.9078 11.3668 12.928L11.4882 11.2323C11.1581 11.2087 11.026 11.1983 10.9061 11.1711C10.8119 11.1496 10.6999 11.1111 10.4708 10.9859L9.65577 12.4778ZM11.3668 12.928C12.1005 12.9805 12.8369 12.8747 13.5262 12.6176L12.932 11.0248C12.4712 11.1967 11.9788 11.2675 11.4882 11.2323L11.3668 12.928ZM13.5262 12.6176C14.2154 12.3605 14.8413 11.9582 15.3613 11.4379L14.159 10.236C13.8113 10.5839 13.3928 10.8529 12.932 11.0248L13.5262 12.6176ZM15.3612 11.438L17.9292 8.87001L16.7271 7.66793L14.1591 10.2359L15.3612 11.438ZM17.9396 8.85948C18.874 7.89195 19.3911 6.59611 19.3794 5.25104L17.6795 5.26581C17.6873 6.16514 17.3416 7.03157 16.7168 7.67847L17.9396 8.85948ZM19.3794 5.25104C19.3677 3.90597 18.8282 2.61931 17.8771 1.66816L16.675 2.87025C17.3109 3.50619 17.6717 4.36648 17.6795 5.26581L19.3794 5.25104ZM17.8771 1.66816C16.9259 0.717023 15.6393 0.177507 14.2942 0.165819L14.2794 1.86575C15.1788 1.87357 16.039 2.2343 16.675 2.87025L17.8771 1.66816ZM14.2942 0.165819C12.9491 0.154131 11.6533 0.671205 10.6858 1.60567L11.8668 2.82846C12.5137 2.20366 13.3801 1.85794 14.2794 1.86575L14.2942 0.165819ZM10.677 1.61428L9.20466 3.07803L10.4032 4.28362L11.8755 2.81986L10.677 1.61428ZM10.322 6.59431C10.0512 6.44637 9.8087 6.32067 9.53228 6.23767C9.25325 6.15389 8.98103 6.12577 8.66676 6.10326L8.54532 7.79892C8.84322 7.82025 8.95589 7.83958 9.04338 7.86585C9.13346 7.8929 9.23909 7.93986 9.5069 8.08617L10.322 6.59431ZM8.66676 6.10326C7.93303 6.05071 7.19657 6.15658 6.50735 6.41368L7.10151 8.00647C7.56233 7.83457 8.05474 7.76378 8.54532 7.79892L8.66676 6.10326ZM6.50735 6.41368C5.81813 6.67078 5.19226 7.0731 4.67219 7.59335L5.87449 8.79521C6.22222 8.44737 6.64068 8.17837 7.10151 8.00647L6.50735 6.41368ZM4.6723 7.59324L2.10431 10.1612L3.30639 11.3633L5.87438 8.79532L4.6723 7.59324ZM2.09396 10.1718C1.15949 11.1393 0.642412 12.4351 0.6541 13.7802L2.35404 13.7654C2.34622 12.8661 2.69194 11.9997 3.31674 11.3528L2.09396 10.1718ZM0.6541 13.7802C0.665788 15.1253 1.2053 16.4119 2.15645 17.3631L3.35853 16.161C2.72258 15.5251 2.36185 14.6648 2.35404 13.7654L0.6541 13.7802ZM2.15645 17.3631C3.10759 18.3142 4.39425 18.8537 5.73932 18.8654L5.75409 17.1655C4.85476 17.1577 3.99447 16.797 3.35853 16.161L2.15645 17.3631ZM5.73932 18.8654C7.08439 18.8771 8.38023 18.36 9.34776 17.4256L8.16675 16.2028C7.51985 16.8276 6.65342 17.1733 5.75409 17.1655L5.73932 18.8654ZM9.3583 17.4152L10.8221 15.9515L9.61997 14.7494L8.15621 16.2131L9.3583 17.4152ZM2.13602 6.24564H3.58202V4.54564H2.13602V6.24564ZM5.28688 1.42269V2.86869H6.98688V1.42269H5.28688ZM18.1092 12.5729H16.6632V14.2729H18.1092V12.5729ZM14.9589 17.3959V15.9499H13.2589V17.3959H14.9589Z" fill="black"/>
</svg>
