<svg width="449" height="156" viewBox="0 0 449 156" fill="none" xmlns="http://www.w3.org/2000/svg">
<rect width="449" height="156" rx="78" fill="#E5E5E5"/>
<path d="M91.3746 118.014C110.239 118.014 119.311 106.062 119.311 86.4778V36.6538C119.311 33.4858 117.439 31.7578 114.847 31.7578C112.255 31.7578 110.527 33.4858 110.527 36.6538V86.4778C110.527 103.038 103.327 109.806 91.3746 109.806C79.7106 109.806 72.5106 103.038 72.5106 86.4778V36.6538C72.5106 33.4858 70.6386 31.7578 68.0466 31.7578C65.4546 31.7578 63.7266 33.4858 63.7266 36.6538V86.4778C63.7266 106.062 72.7986 118.014 91.3746 118.014Z" fill="black"/>
<path d="M203.723 119.742C213.515 119.742 219.275 113.694 224.027 107.214C228.779 113.694 234.539 119.742 244.331 119.742C247.931 119.742 251.099 118.734 251.099 115.422C251.099 113.406 249.515 111.534 247.211 111.534C246.347 111.534 244.763 111.822 243.755 111.822C239.147 111.822 233.675 105.774 230.651 101.454C236.843 94.8298 243.611 86.3338 243.611 76.9738C243.611 66.1738 235.403 58.5418 224.027 58.5418C212.651 58.5418 204.443 66.1738 204.443 76.9738C204.443 86.3338 211.211 94.8298 217.403 101.454C214.379 105.774 208.907 111.822 204.299 111.822C203.291 111.822 201.707 111.534 200.843 111.534C198.539 111.534 196.955 113.406 196.955 115.422C196.955 118.734 200.123 119.742 203.723 119.742Z" fill="black"/>
<path d="M356.391 118.014C375.255 118.014 384.327 106.062 384.327 86.4778V36.6538C384.327 33.4858 382.455 31.7578 379.863 31.7578C377.271 31.7578 375.543 33.4858 375.543 36.6538V86.4778C375.543 103.038 368.343 109.806 356.391 109.806C344.727 109.806 337.527 103.038 337.527 86.4778V36.6538C337.527 33.4858 335.655 31.7578 333.063 31.7578C330.471 31.7578 328.743 33.4858 328.743 36.6538V86.4778C328.743 106.062 337.815 118.014 356.391 118.014Z" fill="black"/>
<path fill-rule="evenodd" clip-rule="evenodd" d="M169.386 62.3013L169.377 62.2956L169.367 62.2901C167.649 61.2592 165.657 62.0021 164.716 63.5699C163.687 65.2856 164.426 67.2748 165.99 68.2171C170.644 71.1009 173.708 76.1813 173.708 81.4169C173.708 89.9993 166.895 96.8125 158.313 96.8125C149.73 96.8125 142.917 89.9993 142.917 81.4169C142.917 75.9374 145.991 70.8584 150.641 67.9796L150.679 67.9561L150.715 67.9293C151.365 67.442 151.845 66.7223 152.048 65.9492C152.25 65.1834 152.195 64.2849 151.649 63.5275C150.7 61.9917 148.734 61.2713 147.034 62.2842C140.163 66.2146 135.999 73.5734 135.999 81.4169C135.999 93.6803 145.815 103.497 158.079 103.497C170.342 103.497 180.159 93.6803 180.159 81.4169C180.159 73.5576 175.983 66.4549 169.386 62.3013Z" fill="black"/>
<path d="M158.079 84.7623C159.009 84.7623 159.862 84.4479 160.484 83.8253C161.107 83.2026 161.421 82.35 161.421 81.4201V60.34C161.421 59.4101 161.107 58.5575 160.484 57.9348C159.862 57.3122 159.009 56.9978 158.079 56.9978C157.149 56.9978 156.297 57.3122 155.674 57.9348C155.051 58.5575 154.737 59.4101 154.737 60.34V81.4201C154.737 82.35 155.051 83.2026 155.674 83.8253C156.297 84.4479 157.149 84.7623 158.079 84.7623Z" fill="black"/>
<path fill-rule="evenodd" clip-rule="evenodd" d="M298.386 62.3013L298.377 62.2956L298.367 62.2901C296.649 61.2592 294.657 62.0021 293.716 63.5699C292.687 65.2856 293.426 67.2748 294.99 68.2171C299.644 71.1009 302.708 76.1813 302.708 81.4169C302.708 89.9993 295.895 96.8125 287.313 96.8125C278.73 96.8125 271.917 89.9993 271.917 81.4169C271.917 75.9374 274.991 70.8584 279.641 67.9796L279.679 67.9561L279.715 67.9293C280.365 67.442 280.845 66.7223 281.048 65.9492C281.25 65.1834 281.195 64.2849 280.649 63.5275C279.7 61.9917 277.734 61.2713 276.034 62.2842C269.163 66.2146 264.999 73.5734 264.999 81.4169C264.999 93.6803 274.815 103.497 287.079 103.497C299.342 103.497 309.159 93.6803 309.159 81.4169C309.159 73.5576 304.983 66.4549 298.386 62.3013Z" fill="black"/>
<path d="M287.079 84.7623C288.009 84.7623 288.862 84.4479 289.484 83.8253C290.107 83.2026 290.421 82.35 290.421 81.4201V60.34C290.421 59.4101 290.107 58.5575 289.484 57.9348C288.862 57.3122 288.009 56.9978 287.079 56.9978C286.149 56.9978 285.297 57.3122 284.674 57.9348C284.051 58.5575 283.737 59.4101 283.737 60.34V81.4201C283.737 82.35 284.051 83.2026 284.674 83.8253C285.297 84.4479 286.149 84.7623 287.079 84.7623Z" fill="black"/>
</svg>
