<svg xmlns="http://www.w3.org/2000/svg" viewBox="0 0 644 385"><ellipse cx="282.09" cy="86.32" rx="5.18" ry="2.98" transform="rotate(-88.42 282.1 86.32)"/><ellipse cx="338.97" cy="87.85" rx="5.18" ry="2.98" transform="rotate(-88.42 338.97 87.85)"/><path d="M432 237c1.54-.61 2.33-1.93 2.88-3.86 1.16-5.73-1.77-9.89-8.3-13.15-6-22.71-22.54-39.1-35.6-56.45a37.48 37.48 0 0021.76.34s-26.48-14.73-31.54-32c0 0 4.69 2.34 8.53 0 0 0-18.75-20.06-19.6-46.1S396.36 3.36 389.76.16c-6.29-3.05-41.58 38.24-44.92 42.17-2.08-.73-10.06-3.5-16.32-5-2.82-.67-6.37-2.61-9.51-4.33-4.75-2.6-7.09-3.8-8.49-2.74-1.87 1.61.44 5.41 1.31 6.93l-10-.53a1 1 0 00-1.08 1 1 1 0 001 1.08l14.52.77-1.53-1.82c0 .08-2.54-3.19-2.83-5.73 4.31 1.2 11.52 6.5 16.19 7.4 3.08.72 6.6 1.77 9.61 2.73-4.17 3.78-16.34 16.92-16.51 41.51-.22 29.66 21.52 37.56 29.62 45 9.85 9.18 14.25 20.17 31.62 31a101.42 101.42 0 01-61.18 20.66h-.55c-35.59.1-64.52-22.6-67.49-25.45a22.77 22.77 0 002.41-7.21 92 92 0 0015.25 1.64c39.85 1.22 44.69 10.74 44.78 10.94a1 1 0 001.92-.76c-.17-.45-4.67-10.95-46.64-12.24a89.72 89.72 0 01-15.71-1.77.82.82 0 00-.61-.13c-8.18-1.8-13.79-4.64-17.62-7.59.45-1.74 2-5.12 7.49-7.41 6.24-2.6 7.4-6.62 7.62-8 10-2.09 21.05-5.38 28.26-10.41 12.08-7.07 24.28-19.31 19.52-39-8.74-36.06-47.3-69.57-56.25-69.57s15.6 36.5 19.6 67c3.23 24.71-.72 42-2.35 47.69a170.58 170.58 0 01-23 4.58c-3.71.5-6.84 2.7-8 5.61-3.17 7.8 11.75 16.43 23.68 19-1.4 10.33-15.68 24.75-22.93 36-5.38 1.06-9.16 4.1-6.71 9.26-5 1-8.13 5.2-6.67 9.57-3.59 2.22-4 5.61-3.68 7-4.84 1.72-5.13 7.69-.63 10a108.83 108.83 0 00-3.17 13.79c-.06.34-5.89 34.29 22.55 46.64 14.78 5.68 34.49 3 51.95.79l-.07.12c37.38 20.7 89.95 22.53 128.47-2.42 4.1.6 6.71.2 7.82-1.69a5.91 5.91 0 00.33-6c5.08 1.46 9.2-2.11 7.64-7.35 2.77.33 6.86-6.1 5.46-9.86 2.89-.61 3.79-3 3.86-6.73S435 239.47 432 237zM339 94.52c-5.07 0-9.17-5.78-9.17-12.91.51-17.14 17.82-17.14 18.33 0 .05 7.1-4.05 12.88-9.11 12.88zm-57.27-27.35c5.06 0 9.16 5.78 9.16 12.91-.5 17.14-17.82 17.14-18.32 0 0-7.08 4.1-12.91 9.16-12.91zm102.6 93.59a44.9 44.9 0 003.26 1.52c1.48 2.12 3.13 4.31 4.9 6.56-18.77 6.78-52.31 36.65-59 42.73l-10.84-29.19a103.57 103.57 0 0061.68-21.62zM242 171.29a140.45 140.45 0 0010.21-14.56c4.72 4 31.19 24.8 67.07 25.64l-10.84 29.2c-6.86-6.22-41.74-37.28-60.24-43.15a1 1 0 10-.62 2c19.71 6.26 60.19 43.37 60.6 43.74l1.13 1 11.66-31.42 11.67 31.42 1.13-1c.41-.37 40.23-36.87 60.11-43.57 11.54 14.47 24.8 29.34 30.34 48.38-14.57-5.64-29.19.51-44.68 4.69l-3.59-9.19a1 1 0 10-1.92.75l3.52 9c-17.52 5.3-51 13.61-76 13.37-13.7-3.94-26.08-19.68-36.05-32.37s-17.67-22.89-32.11-22.3c2.94-4.22 5.91-8.14 8.61-11.63zm96.18 97l-8.4 1.68a48.81 48.81 0 01-3.59-32.17c2.9-.41 5.71-.84 8.45-1.3a50.77 50.77 0 003.5 31.74zm-58-32.12c-3.53-.47-6.91-1-10.15-1.68a41.39 41.39 0 009.05-10c2 2.06 4 4 6.11 5.82l-5 5.84zm6.59-4.53a48.93 48.93 0 008.91 5.85c-4.52-.17-8.88-.52-13.06-1zm-74.9-17.85c1.06-5.6 14-3.5 18-2.84a1 1 0 00.41-2h-.06c-4.36-.78-9.92-1.43-14.63-.45.12-7.47 11.9-6 16.42-5.2a1 1 0 001.21-.81 1 1 0 00-.81-1.21c-.39-.08-8.24-1.56-13.25 0-1.65-7.94 10.88-7.71 16-7.27a1 1 0 00.22-2l-.2 1.86.2-1.86a40.61 40.61 0 00-9.38.18 6 6 0 01-.77-3.1c0-.84.93-1.84 2.43-2.6 4.66-2.39 13.32-2.33 21.29 3.43 8.81 6.89 19.26 23.51 28.6 33.09a39.62 39.62 0 01-10.24 11c-13.87-3-28.13-7.94-38.66-13.64h-.08l-.24-.14H228c-3.95-.32-16.46-.84-16.2-6.49zm21.33 63.82c-30.38-14.52-21.2-48.32-18.39-57.61 4 1.63 9 2.07 12.95 2.18 22 11.09 44.27 17 73.47 17.49l.26.08v-.07a161.26 161.26 0 0022.51-1.61 50.79 50.79 0 003.7 32.3c-32.77 6.55-76.42 15.07-94.57 7.19zm117 16.88c-30.16.64-55.2-10.86-62.62-14.66 22.73-2.88 60-12.68 77.74-13.47 11.94.37 32.2 8.4 44.45 11.07a124.28 124.28 0 01-59.67 17.01zm84.29-43.79a2 2 0 01-1.49.3c-2.45-3.69-7.12-6-10.88-7.5a1 1 0 00-.69 1.95c4.05 1.67 12.26 5.39 10.45 11.05-1.58 4-3.06 4.92-4.69 4-2.81-3.67-8.23-5.85-8.56-6a1 1 0 10-.76 1.92c.1 0 10.21 4.11 8.76 9.55-.92 4.39-7.38 1.81-9.29.74a15.57 15.57 0 00-2.68-1.34 1 1 0 00-.7 1.94c1.22.38 7.69 3.49 4.79 7.9-1.59 2.71-13.51-.94-24-4.17-9.94-3-21.21-6.5-29.38-6.79-4.66-.18-13.57 1.36-25.06 3.61a48.72 48.72 0 01-3.42-31.76c19-3.33 34-7.78 46.2-11.35 12.92-3.5 23.91-7.74 35.7-5.32 9.42 2.26 12.94 6 14 9s-.08 8.34-3.67 6.29a41.49 41.49 0 00-4.43-2.61 1 1 0 00-.91 1.85 34.92 34.92 0 013.34 1.92 6.69 6.69 0 00.81.53c3.66 2.48 7.83 6.2 7.83 9.84-.05 2.24-.51 3.75-1.37 4.4zM242.68 351.75c-3.68 6.08-1.68 11.57 4.32 16.57 4 3.25 9.66 6.17 16.9 8.68 29.17 10.59 82.32 10.59 111.49 0 7.24-2.51 12.93-5.43 16.9-8.68 6.82-5.57 8.33-12.07 2.91-18.46l-17-19.92a15.48 15.48 0 00-3-3 43.47 43.47 0 00-12.95-6.31 123 123 0 00-27-5.14 6.12 6.12 0 00-2.29-.18c-18.23-1.51-41.69.39-56.09 5.32a43.47 43.47 0 00-12.95 6.31 16.39 16.39 0 00-2.7 2.59l-18.4 22.1m137.13-16.51zm-60.26-2.66c20.74 0 40.21 2.78 54.87 7.82l-.59.48c-24.17 15.23-69.74 14-96.46 6-5.61-1.88-9.73-3.83-12.85-6.41 14.65-5.13 34.19-7.92 55-7.92zM391 366.72c-3.78 3.1-9.25 5.9-16.26 8.33-28.75 10.44-81.4 10.44-110.15 0-7-2.43-12.48-5.23-16.26-8.33-5.18-4.36-7.07-8.67-3.9-13.85l14.76-17.74c.19 2.51 1.76 4.94 4.71 7.23a43.47 43.47 0 0012.95 6.31c22.35 7.69 63.07 7.69 85.42 0a43.47 43.47 0 0012.95-6.31c2.9-2.26 4.47-4.64 4.7-7.1.07 0 .09-.07.06-.11l13.67 16.05c4.67 5.53 3.25 10.64-2.65 15.52z"/><path d="M313.57 371.93h1.89v2h-1.89v3.38h-2.52V374h-6.55l-.07-1.54 6.57-10.29h2.61zm-6.49 0h4v-6.33l-.19.33zM327 371a8.27 8.27 0 01-1.23 4.94 4.31 4.31 0 01-3.72 1.66 4.38 4.38 0 01-3.7-1.62 7.92 7.92 0 01-1.27-4.8v-2.68a8.1 8.1 0 011.22-4.9 5.09 5.09 0 017.44-.05 8 8 0 011.26 4.78zm-2.53-2.83a6.37 6.37 0 00-.59-3.13 2.21 2.21 0 00-3.67-.05 5.92 5.92 0 00-.61 2.94v3.44a6.52 6.52 0 00.59 3.16 2 2 0 001.86 1 2 2 0 001.8-1 6.2 6.2 0 00.62-3zM337.79 371.93h1.89v2h-1.89v3.38h-2.52V374h-6.55l-.07-1.54 6.53-10.25h2.61zm-6.49 0h4v-6.33l-.19.33z"/><path d="M211.2 256.31H2M642 256.31H432.8" fill="none" stroke="#000" stroke-linecap="round" stroke-width="2.06"/><circle cx="310.92" cy="338.48" r="1.28"/><circle cx="316.46" cy="342.74" r="1.28"/><circle cx="336.49" cy="340.18" r="1.28"/></svg>
