<svg xmlns="http://www.w3.org/2000/svg" fill="none" viewBox="0 0 316 157">
  <ellipse cx="112.824" cy="60.3329" fill="#fff" rx="2.62567" ry="3.28209"/>
  <ellipse cx="113.809" cy="60.3329" fill="#000" rx=".984626" ry="1.96925"/>
  <ellipse cx="120.701" cy="60.3329" fill="#fff" rx="2.62567" ry="3.28209"/>
  <ellipse cx="121.686" cy="60.3329" fill="#000" rx=".984626" ry="1.96925"/>
  <path stroke="#000" stroke-linecap="round" stroke-linejoin="round" stroke-width="1.5" d="M118.732 52.1278c6.893-9.19 14.113-14.2442 15.426-13.4566 1.313.7877-4.923 8.2051-8.862 19.036 6.794 1.2818 17.395 2.2975 17.395 3.6103 0 6.5641-21.333 5.9078-27.897 5.9079"/>
  <path fill="#000" d="M142.363 61.3175c-.328-.6564-2.625-1.3128-4.266-1.3128-.329 1.641.656 3.2821 1.641 4.5949 1.641-.6564 3.23-2.0717 2.625-3.2821Z"/>
  <path fill="#000" d="M138.097 60.0047v-.5c-.239 0-.444.1682-.491.402l.491.098Zm4.266 1.3128-.447.2236.447-.2236Zm-2.625 3.2821-.4.3.23.3066.355-.1423-.185-.4643Zm-1.641-4.0949c.764 0 1.7.1546 2.482.3892.39.1171.725.2493.974.3823.124.0665.217.1281.281.1814.067.0559.083.086.082.0835l.894-.4472c-.156-.3122-.484-.5379-.785-.6992-.326-.1746-.729-.3296-1.159-.4587-.859-.2577-1.892-.4313-2.769-.4313v1Zm3.819 1.0364c.164.3286.08.7611-.395 1.2913-.464.5167-1.201.9959-1.969 1.303l.371.9285c.874-.3494 1.752-.9061 2.342-1.5636.578-.6442.986-1.5246.545-2.4064l-.894.4472Zm-4.31-1.6344c-.19.9501.006 1.8757.358 2.7126.352.8352.872 1.6118 1.374 2.2803l.8-.6c-.484-.6443-.948-1.3446-1.252-2.0684-.304-.7222-.437-1.4376-.299-2.1285l-.981-.196Z"/>
  <path stroke="#000" stroke-linecap="round" stroke-linejoin="round" stroke-width="1.5" d="M102.65 73c.85-7 .656-8.4004 0-17.9185-.897-6.665-3.6104-16.7387-2.298-17.0669 1.641-.4102 6.565 7.8771 9.518 14.4412 1.97-.9846 4.267-1.641 5.252-1.641-.128.3845-.2.6001-.328.9846h1.537m9.622 15.4259C125.952 69 126 71.5 126.5 73"/>
  <path fill="#CCED00" stroke="#000" stroke-linecap="round" stroke-linejoin="round" stroke-width="1.5" d="M78.8521 73h74.2449c1.564 18.5153-6.608 47.457-37.324 47.412-30.5589.045-38.6427-28.8967-36.9209-47.412Z"/>
  <path stroke="#000" stroke-linecap="round" stroke-linejoin="round" stroke-width="1.5" d="M153 81.0701H78.6503M280 120.613H37.4305M78.6503 81.07c-29.0521-2.421-17.1488 35.105 13.1139 30.666"/>
  <path fill="#CCED00" stroke="#000" stroke-linejoin="round" stroke-width="1.5" d="m170.463 108.834-14.529 8.026c-1.076.607 1.7-3.38 1.73-5.016-.031-1.256-1.179-2.497-1.175-4.334.059-1.69 1.576-2.22 1.821-4.004.221-1.606-2.274-5.3911-1.278-4.6631l13.431 9.9911Z"/>
  <path stroke="#000" stroke-linecap="round" stroke-width="1.08311" d="M161.662 110.374 168 109m-6.354-3.159L168 108.5"/>
  <path fill="#CCED00" stroke="#000" stroke-linejoin="round" stroke-width="1.5" d="m187.648 109.922 14.577-7.939c1.079-.602-1.72 3.369-1.76 5.005.023 1.256 1.164 2.504 1.149 4.341-.069 1.69-1.589 2.21-1.845 3.994-.23 1.604 2.242 5.404 1.251 4.67l-13.372-10.071Z"/>
  <path stroke="#000" stroke-linecap="round" stroke-width="1.08311" d="M197.252 109.04 190 110m6.275 3.667-6.414-3.501"/>
  <circle cx="178.966" cy="109.428" r="10.7193" fill="#CCED00" stroke="#000" stroke-linejoin="round" stroke-width="1.5" transform="rotate(-152.373 178.966 109.428)"/>
</svg>
