<svg xmlns="http://www.w3.org/2000/svg" fill="none" viewBox="0 0 1366 777">
  <ellipse cx="424" cy="215.022" fill="#fff" rx="4" ry="5"/>
  <ellipse cx="425.5" cy="215.022" fill="#000" rx="1.5" ry="3"/>
  <ellipse cx="436" cy="215.022" fill="#fff" rx="4" ry="5"/>
  <ellipse cx="437.5" cy="215.022" fill="#000" rx="1.5" ry="3"/>
  <path stroke="#000" stroke-linecap="round" stroke-linejoin="round" stroke-width="1.5" d="M433 202.523c10.5-14.001 21.5-21.7 23.5-20.5 2 1.199-7.5 12.499-13.5 28.999 10.349 1.953 26.5 3.5 26.5 5.5 0 10-32.5 9-42.5 9.001"/>
  <path fill="#000" d="M469 216.522c-.5-1-4-2-6.5-2-.5 2.5 1 5 2.5 7 2.5-1 4.922-3.156 4-5Z"/>
  <path fill="#000" d="M462.5 214.522v-.75a.752.752 0 0 0-.736.603l.736.147Zm6.5 2-.671.336.671-.336Zm-4 5-.6.45.345.46.533-.213-.278-.697Zm-2.5-6.25c1.165 0 2.592.236 3.784.594a8.31 8.31 0 0 1 1.487.583c.189.102.331.196.43.278a.551.551 0 0 1 .128.131l1.342-.671c-.236-.472-.734-.815-1.192-1.06-.496-.266-1.109-.502-1.764-.698-1.307-.392-2.88-.657-4.215-.657v1.5Zm5.829 1.586c.254.507.122 1.171-.604 1.98-.708.789-1.833 1.52-3.004 1.988l.557 1.393c1.33-.532 2.666-1.379 3.563-2.379.88-.98 1.498-2.316.83-3.653l-1.342.671Zm-6.565-2.483c-.288 1.445.009 2.852.545 4.126.535 1.271 1.327 2.453 2.091 3.471l1.2-.9c-.736-.982-1.444-2.049-1.909-3.153-.464-1.102-.667-2.194-.456-3.25l-1.471-.294Z"/>
  <path stroke="#000" stroke-linecap="round" stroke-linejoin="round" stroke-width="1.5" d="M430.5 202.022H427l.5-1.5c-1.5 0-5 1-8 2.5-4.5-10-12-22.625-14.5-22-2 .5 2.133 15.847 3.5 26 1 14.5 0 25-1.5 35h-36c-20-2.5-13.913-30 7-30-3.5-4-8-5-13-4v-2.5c-5.5 2-9.5 3-13 8.5l-1-3c-3.5 4.5-6 5.5-6 13l-2.5-2.5c-.5 5-1 10.5 1.5 17l-4-1c2 4.5 3.5 8 8 11.5l-3 1.5c6 3 10.5 3 18 3.5v25.5M444 225.522c1 20 10 23.5 14 37-2-2-3.5-3.5-6-4.5 2.5 3.5 4.5 6 5 10.5-2-2-3.5-3-6-4 1 2.5 2 3.5 2 6-1-1-2-1-3-1-.5 4-3 6-2 10.5M448 280.522l3.5 26.5c8 0 8 5 8 9H444l-4.5-36M429.5 280.522l.5 26.5c8 0 8 5 8 9h-16.5l-.5-36M371.5 280.022l-3.5 27c8 0 8 5 8 9h-17.5l4.5-36M392.5 280.022l-2.5 27c8 0 8 5 8 9h-17.5l3.5-36M371.5 280.022H384m8.5 0H421m8.5 0H442M432.5 248.022H425l1.5 5h4.5l1.5-5Z"/>
  <path stroke="#000" stroke-linecap="round" stroke-linejoin="round" stroke-width="1.5" d="m423 265.522 3.5-12.5h4.5l4 12.5-6 4.5-6-4.5ZM432.5 248.022c5.5-2 9-4.5 12-8m-19.5 8c-7.5-2.5-10-4-15.5-8"/>
  <path fill="#000" d="M647.284 179.484c-14.462 3.876-29.381-4.738-33.256-19.2s4.738-29.381 19.2-33.256 29.381 4.738 33.256 19.2-4.738 29.381-19.2 33.256Zm-13.724-51.217c-13.778 3.692-21.985 17.906-18.293 31.684 3.692 13.78 17.906 21.986 31.685 18.294s21.985-17.906 18.293-31.685c-3.692-13.778-17.906-21.985-31.685-18.293Z"/>
  <path fill="#000" d="M645.735 173.7a21.027 21.027 0 0 1-16.061-2.114c-10.107-5.836-13.581-18.806-7.746-28.913a21.022 21.022 0 0 1 12.851-9.861 21.025 21.025 0 0 1 16.06 2.114c10.107 5.836 13.582 18.806 7.747 28.913a21.024 21.024 0 0 1-12.851 9.861Zm-10.624-39.648a19.75 19.75 0 0 0-12.072 9.263c-5.481 9.494-2.217 21.677 7.276 27.159a19.756 19.756 0 0 0 15.087 1.986 19.747 19.747 0 0 0 12.072-9.263c5.482-9.495 2.217-21.678-7.277-27.16a19.753 19.753 0 0 0-15.086-1.985ZM634.533 131.896a.641.641 0 0 1-.786-.454l-.39-1.455a.642.642 0 0 1 1.24-.332l.39 1.455a.643.643 0 0 1-.454.786ZM646.702 177.312a.641.641 0 0 1-.786-.454l-.39-1.455a.642.642 0 1 1 1.24-.332l.39 1.455a.643.643 0 0 1-.454.786ZM651.8 134.169a.641.641 0 0 1-.722-.94l.753-1.305a.643.643 0 0 1 1.112.642l-.754 1.304a.636.636 0 0 1-.389.299ZM628.291 174.887a.64.64 0 0 1-.721-.94l.753-1.305a.64.64 0 1 1 1.111.642l-.753 1.305a.639.639 0 0 1-.39.298Z"/>
  <path fill="#000" d="m663.858 147.596-1.456.39a.642.642 0 0 1-.332-1.24l1.456-.39a.643.643 0 0 1 .332 1.24ZM618.442 159.765l-1.455.39a.641.641 0 1 1-.333-1.239l1.456-.39a.642.642 0 1 1 .332 1.239ZM661.433 166.007a.645.645 0 0 1-.487-.064l-1.304-.753a.642.642 0 0 1 .641-1.112l1.305.754a.64.64 0 0 1-.155 1.175ZM620.715 142.498a.636.636 0 0 1-.487-.064l-1.304-.753a.641.641 0 0 1 .641-1.111l1.305.753a.641.641 0 0 1-.155 1.175ZM624.332 137.786a.642.642 0 0 1-.62-.166l-1.066-1.066a.641.641 0 1 1 .908-.907l1.065 1.065a.642.642 0 0 1-.287 1.074ZM657.579 171.032a.644.644 0 0 1-.621-.166l-1.065-1.066a.642.642 0 0 1 .909-.907l1.065 1.065a.642.642 0 0 1-.288 1.074ZM640.424 131.121a.642.642 0 0 1-.809-.62l-.001-1.506a.642.642 0 1 1 1.284-.001l.001 1.506a.645.645 0 0 1-.475.621ZM640.424 178.138a.643.643 0 0 1-.809-.62l-.001-1.506a.642.642 0 0 1 1.284-.001l.001 1.507a.643.643 0 0 1-.475.62ZM656.513 137.785a.64.64 0 0 1-.62-1.073l1.065-1.066a.642.642 0 1 1 .908.908l-1.066 1.065a.63.63 0 0 1-.287.166ZM623.267 171.032a.642.642 0 0 1-.62-1.073l1.066-1.066a.642.642 0 0 1 .907.908l-1.066 1.065a.64.64 0 0 1-.287.166ZM664.685 153.876a.653.653 0 0 1-.167.021h-1.507a.641.641 0 1 1 .001-1.283h1.506a.643.643 0 0 1 .167 1.262ZM617.667 153.876a.651.651 0 0 1-.166.021h-1.507a.64.64 0 1 1-.001-1.283h1.507a.641.641 0 0 1 .167 1.262ZM618.442 147.986a.634.634 0 0 1-.332 0l-1.455-.39a.641.641 0 1 1 .332-1.24l1.456.39a.642.642 0 0 1-.001 1.24ZM663.858 160.156a.634.634 0 0 1-.332-.001l-1.455-.39a.641.641 0 1 1 .332-1.239l1.455.39a.642.642 0 0 1 0 1.24ZM629.044 134.169a.64.64 0 0 1-.721-.299l-.754-1.304a.643.643 0 0 1 1.112-.642l.754 1.304a.643.643 0 0 1-.391.941ZM652.554 174.887a.64.64 0 0 1-.721-.299l-.754-1.304a.642.642 0 0 1 1.112-.642l.754 1.305a.642.642 0 0 1-.391.94ZM646.311 131.896a.642.642 0 0 1-.785-.787l.39-1.455a.64.64 0 1 1 1.24.332l-.391 1.456a.644.644 0 0 1-.454.454ZM634.143 177.312a.641.641 0 0 1-.786-.787l.391-1.455a.641.641 0 0 1 1.239.333l-.39 1.455a.646.646 0 0 1-.454.454ZM660.129 142.498a.643.643 0 0 1-.486-1.176l1.305-.753a.641.641 0 1 1 .641 1.112l-1.305.753a.668.668 0 0 1-.155.064ZM619.411 166.007a.643.643 0 0 1-.487-1.176l1.305-.753a.643.643 0 0 1 .642 1.111l-1.305.753a.595.595 0 0 1-.155.065ZM633.214 151.577a1.649 1.649 0 0 0-1.166 2.034 1.648 1.648 0 0 0 2.027 1.178 1.65 1.65 0 0 0 1.167-2.034 1.65 1.65 0 0 0-2.028-1.178ZM641.661 154.657c.532.42.983.694 1.351.823.378.126.653.166.823.12a2.34 2.34 0 0 0 .47-.174c.133-.068.254-.139.363-.211l.285 1.06a1.472 1.472 0 0 1-.416.258c-.17.089-.345.157-.526.206a2.124 2.124 0 0 1-.729.049c-.273-.013-.593-.101-.959-.263-.369-.172-.809-.449-1.321-.831-.353.852-.71 1.446-1.073 1.781-.352.333-.699.545-1.04.636a2.765 2.765 0 0 1-.574.089 1.669 1.669 0 0 1-.488-.015l-.284-1.061c.065.004.189.004.37-.002.182-.005.343-.027.484-.064.241-.065.485-.239.732-.521.245-.293.496-.761.754-1.404a10.087 10.087 0 0 1-1.727-1.324c-.47-.469-.78-.981-.929-1.537a2.578 2.578 0 0 1-.013-1.377c.118-.443.343-.828.675-1.155.342-.33.785-.567 1.327-.713.542-.145 1.039-.159 1.49-.042.462.115.849.336 1.163.663.321.315.547.714.676 1.199.103.384.122.796.057 1.235-.068.43-.189.863-.363 1.299-.163.434-.356.859-.578 1.276ZM645.641 148.247a1.65 1.65 0 0 0-1.166 2.034 1.648 1.648 0 0 0 2.027 1.178 1.649 1.649 0 0 0 1.167-2.033 1.65 1.65 0 0 0-2.028-1.179ZM783.154 282.307c-14.973 0-27.154-12.181-27.154-27.154C756 240.181 768.181 228 783.154 228c14.972 0 27.153 12.181 27.153 27.153s-12.181 27.154-27.153 27.154Zm0-53.024c-14.265 0-25.871 11.605-25.871 25.87s11.606 25.871 25.871 25.871c14.264 0 25.87-11.606 25.87-25.871 0-14.264-11.606-25.87-25.87-25.87Z"/>
  <path fill="#000" d="M783.154 276.319a21.029 21.029 0 0 1-14.966-6.199c-8.252-8.253-8.251-21.68.001-29.932a21.023 21.023 0 0 1 14.965-6.2 21.029 21.029 0 0 1 14.966 6.199c8.252 8.253 8.252 21.68 0 29.933a21.027 21.027 0 0 1-14.966 6.199Zm0-41.047a19.752 19.752 0 0 0-14.058 5.823c-7.752 7.752-7.752 20.365-.001 28.117a19.752 19.752 0 0 0 14.059 5.823c5.31 0 10.303-2.068 14.058-5.823 7.752-7.752 7.752-20.365 0-28.117a19.752 19.752 0 0 0-14.058-5.823ZM783.154 233.04a.641.641 0 0 1-.642-.642v-1.506a.641.641 0 1 1 1.283 0v1.506a.641.641 0 0 1-.641.642ZM783.154 280.058a.642.642 0 0 1-.642-.642v-1.506a.642.642 0 0 1 1.284 0v1.506a.643.643 0 0 1-.642.642ZM799.244 239.705a.64.64 0 0 1-.453-1.095l1.065-1.066a.642.642 0 0 1 .907.908l-1.065 1.065a.64.64 0 0 1-.454.188ZM765.998 272.951a.642.642 0 0 1-.454-1.095l1.065-1.065a.642.642 0 1 1 .908.907l-1.065 1.065a.639.639 0 0 1-.454.188Z"/>
  <path fill="#000" d="M807.417 255.795h-1.508a.641.641 0 0 1 0-1.283h1.508a.641.641 0 0 1 0 1.283ZM760.398 255.795h-1.507a.641.641 0 0 1 0-1.283h1.507a.641.641 0 1 1 0 1.283ZM800.309 272.951a.643.643 0 0 1-.454-.188l-1.065-1.065a.64.64 0 1 1 .907-.907l1.065 1.065a.64.64 0 0 1-.453 1.095ZM767.063 239.705a.641.641 0 0 1-.454-.188l-1.065-1.065a.642.642 0 1 1 .907-.908l1.065 1.066a.64.64 0 0 1-.453 1.095ZM771.776 236.089a.642.642 0 0 1-.556-.321l-.754-1.305a.642.642 0 0 1 1.112-.642l.754 1.305a.642.642 0 0 1-.556.963ZM795.285 276.807a.64.64 0 0 1-.556-.321l-.753-1.305a.642.642 0 0 1 1.112-.642l.753 1.306a.641.641 0 0 1-.556.962ZM789.044 233.816a.643.643 0 0 1-.621-.808l.39-1.455a.643.643 0 0 1 1.24.331l-.39 1.455a.643.643 0 0 1-.619.477ZM776.875 279.231a.643.643 0 0 1-.621-.808l.39-1.455a.64.64 0 1 1 1.24.332l-.389 1.455a.644.644 0 0 1-.62.476ZM802.86 244.418a.642.642 0 0 1-.321-1.198l1.305-.753a.641.641 0 1 1 .642 1.111l-1.305.754a.642.642 0 0 1-.321.086ZM762.142 267.927a.643.643 0 0 1-.321-1.198l1.305-.753a.642.642 0 0 1 .642 1.111l-1.305.754a.642.642 0 0 1-.321.086ZM806.589 262.075a.633.633 0 0 1-.166-.023l-1.456-.39a.642.642 0 1 1 .333-1.239l1.455.39a.642.642 0 0 1-.166 1.262ZM761.174 249.905a.631.631 0 0 1-.166-.022l-1.456-.389a.643.643 0 0 1 .332-1.24l1.455.39a.64.64 0 0 1-.165 1.261ZM763.447 244.418a.63.63 0 0 1-.32-.087l-1.306-.754a.64.64 0 1 1 .642-1.111l1.305.754a.641.641 0 0 1-.321 1.198ZM804.165 267.926a.63.63 0 0 1-.32-.086l-1.305-.754a.641.641 0 0 1 .642-1.111l1.304.754a.643.643 0 0 1-.321 1.197ZM777.264 233.815a.643.643 0 0 1-.62-.475l-.39-1.455a.643.643 0 0 1 1.24-.332l.391 1.454a.642.642 0 0 1-.621.808ZM789.434 279.231a.64.64 0 0 1-.619-.476l-.39-1.455a.642.642 0 1 1 1.24-.332l.39 1.455a.643.643 0 0 1-.621.808ZM794.531 236.088a.64.64 0 0 1-.555-.963l.754-1.305a.641.641 0 1 1 1.111.643l-.754 1.304a.642.642 0 0 1-.556.321ZM771.022 276.807a.64.64 0 0 1-.555-.963l.754-1.304a.641.641 0 0 1 1.111.642l-.754 1.304a.642.642 0 0 1-.556.321ZM805.134 249.905a.642.642 0 0 1-.165-1.261l1.455-.39a.643.643 0 0 1 .331 1.24l-1.455.389a.631.631 0 0 1-.166.022ZM759.719 262.075a.642.642 0 0 1-.166-1.262l1.455-.39a.642.642 0 0 1 .333 1.239l-1.456.391a.631.631 0 0 1-.166.022ZM776.786 251.709c-.92 0-1.653.737-1.653 1.663a1.65 1.65 0 0 0 1.653 1.663 1.65 1.65 0 0 0 1.654-1.663c0-.926-.733-1.663-1.654-1.663ZM784.148 256.87c.405.544.769.925 1.092 1.145.332.219.587.329.764.329.187 0 .353-.015.499-.047a3.66 3.66 0 0 0 .406-.11v1.098a1.46 1.46 0 0 1-.468.141 2.569 2.569 0 0 1-.562.063c-.218 0-.457-.047-.717-.141-.26-.084-.546-.251-.858-.502-.312-.261-.666-.643-1.061-1.145-.561.732-1.06 1.213-1.497 1.443-.426.23-.816.345-1.17.345-.187 0-.379-.021-.577-.063a1.64 1.64 0 0 1-.468-.141v-1.098c.063.021.182.053.359.094.177.042.338.063.484.063.249 0 .53-.104.842-.314.312-.219.676-.606 1.092-1.16a10.07 10.07 0 0 1-1.326-1.726c-.333-.575-.499-1.15-.499-1.725 0-.502.114-.946.343-1.333.229-.398.546-.711.951-.941.416-.231.905-.346 1.466-.346.562 0 1.045.115 1.451.346.416.23.733.543.951.941.229.387.343.831.343 1.333 0 .397-.088.8-.265 1.208a6.058 6.058 0 0 1-.686 1.16c-.27.377-.567.738-.889 1.083ZM789.652 251.709c-.921 0-1.654.737-1.654 1.663a1.65 1.65 0 0 0 1.654 1.663 1.65 1.65 0 0 0 1.653-1.663c0-.926-.733-1.663-1.653-1.663ZM915.228 139.484c-14.462-3.875-23.075-18.794-19.2-33.256s18.794-23.075 33.256-19.2 23.076 18.793 19.2 33.256c-3.875 14.462-18.794 23.076-33.256 19.2Zm13.724-51.217c-13.779-3.692-27.992 4.514-31.684 18.293-3.693 13.779 4.514 27.993 18.292 31.685 13.779 3.692 27.993-4.514 31.685-18.294 3.692-13.778-4.514-27.992-18.293-31.684Z"/>
  <path fill="#000" d="M916.779 133.7a21.023 21.023 0 0 1-12.852-9.861c-5.835-10.107-2.359-23.077 7.748-28.912a21.024 21.024 0 0 1 16.06-2.115 21.026 21.026 0 0 1 12.851 9.861c5.835 10.107 2.359 23.078-7.747 28.913a21.025 21.025 0 0 1-16.06 2.114Zm10.623-39.648a19.75 19.75 0 0 0-15.086 1.986c-9.494 5.481-12.759 17.665-7.278 27.159a19.752 19.752 0 0 0 12.073 9.263 19.745 19.745 0 0 0 15.086-1.986c9.494-5.482 12.759-17.665 7.278-27.159a19.755 19.755 0 0 0-12.073-9.263ZM927.979 91.896a.641.641 0 0 1-.453-.786l.39-1.455a.64.64 0 1 1 1.239.332l-.39 1.456a.641.641 0 0 1-.786.453ZM915.811 137.312a.641.641 0 0 1-.454-.786l.39-1.455a.641.641 0 1 1 1.239.332l-.39 1.455a.64.64 0 0 1-.785.454ZM941.797 102.498a.641.641 0 0 1-.155-1.175l1.304-.753a.642.642 0 0 1 .642 1.111l-1.305.753a.632.632 0 0 1-.486.064ZM901.079 126.007a.64.64 0 0 1-.155-1.175l1.304-.753a.641.641 0 1 1 .642 1.111l-1.305.753a.638.638 0 0 1-.486.064Z"/>
  <path fill="#000" d="m945.526 120.155-1.455-.39a.64.64 0 1 1 .332-1.239l1.455.39a.64.64 0 1 1-.332 1.239ZM900.11 107.986l-1.455-.39a.64.64 0 1 1 .332-1.239l1.455.39a.64.64 0 1 1-.332 1.239ZM934.221 134.887a.637.637 0 0 1-.39-.299l-.753-1.304a.641.641 0 1 1 1.111-.642l.753 1.305a.64.64 0 0 1-.721.94ZM910.712 94.17a.643.643 0 0 1-.39-.3l-.753-1.304a.642.642 0 0 1 1.111-.642l.754 1.305a.642.642 0 0 1-.722.94ZM916.201 91.896a.64.64 0 0 1-.454-.454l-.391-1.455a.643.643 0 0 1 1.24-.332l.39 1.455a.641.641 0 0 1-.785.786ZM928.37 137.312a.644.644 0 0 1-.455-.455l-.389-1.455a.643.643 0 0 1 1.24-.332l.39 1.456a.643.643 0 0 1-.786.786ZM933.469 94.17a.643.643 0 0 1-.391-.94l.753-1.306a.64.64 0 1 1 1.112.641l-.753 1.305a.642.642 0 0 1-.721.3ZM909.96 134.888a.643.643 0 0 1-.391-.941l.753-1.304a.642.642 0 1 1 1.112.641l-.752 1.305a.642.642 0 0 1-.722.299ZM944.07 107.987a.641.641 0 0 1 0-1.24l1.455-.39a.641.641 0 1 1 .333 1.239l-1.456.391a.644.644 0 0 1-.332 0ZM898.655 120.156a.643.643 0 0 1 0-1.24l1.455-.389a.642.642 0 1 1 .332 1.239l-1.455.39a.644.644 0 0 1-.332 0ZM943.102 126.007a.668.668 0 0 1-.155-.064l-1.305-.754a.642.642 0 0 1 .642-1.111l1.305.753a.643.643 0 0 1-.487 1.176ZM902.384 102.498a.612.612 0 0 1-.155-.064l-1.305-.753a.644.644 0 0 1-.236-.877.644.644 0 0 1 .877-.235l1.305.753a.642.642 0 0 1-.486 1.176ZM906 97.786a.632.632 0 0 1-.287-.167l-1.066-1.066a.642.642 0 0 1 .907-.907l1.066 1.066a.642.642 0 0 1-.62 1.074ZM939.246 131.032a.634.634 0 0 1-.287-.166l-1.065-1.066a.64.64 0 1 1 .907-.907l1.065 1.066a.641.641 0 0 1-.62 1.073ZM922.09 91.12a.64.64 0 0 1-.475-.62l-.001-1.505a.642.642 0 0 1 1.284 0l.001 1.506a.643.643 0 0 1-.809.62ZM922.091 138.138a.64.64 0 0 1-.475-.619v-1.507a.642.642 0 1 1 1.283 0l.001 1.507a.643.643 0 0 1-.809.619ZM938.181 97.785a.643.643 0 0 1-.288-1.074l1.066-1.065a.641.641 0 1 1 .907.908l-1.065 1.065a.643.643 0 0 1-.62.166ZM904.934 131.032a.642.642 0 0 1-.287-1.074l1.065-1.064a.642.642 0 1 1 .908.907l-1.066 1.065a.643.643 0 0 1-.62.166ZM944.845 113.876a.643.643 0 0 1 .167-1.262l1.507.001c.353 0 .641.287.642.641a.643.643 0 0 1-.643.642h-1.506a.708.708 0 0 1-.167-.022ZM897.828 113.876a.641.641 0 0 1 .166-1.261l1.507-.001a.643.643 0 0 1 0 1.283l-1.506.001a.612.612 0 0 1-.167-.022ZM916.997 108.281a1.648 1.648 0 0 0-2.027 1.178 1.649 1.649 0 0 0 1.167 2.034 1.65 1.65 0 0 0 2.027-1.178 1.65 1.65 0 0 0-1.167-2.034ZM922.772 115.171c.251.63.504 1.093.759 1.389.264.298.482.47.652.516.181.048.346.076.495.084.148.007.288.007.42-.002l-.284 1.061c-.127.031-.29.036-.489.015a2.584 2.584 0 0 1-.558-.084 2.141 2.141 0 0 1-.657-.322c-.229-.149-.462-.384-.699-.707-.233-.334-.476-.794-.728-1.381-.731.562-1.338.897-1.819 1.007-.472.111-.878.122-1.22.03a2.743 2.743 0 0 1-.541-.21 1.664 1.664 0 0 1-.415-.257l.284-1.061c.055.036.162.098.322.184s.31.148.451.186c.241.064.539.036.895-.085.358-.132.809-.411 1.355-.839a10.016 10.016 0 0 1-.834-2.01c-.173-.641-.185-1.24-.036-1.796.13-.484.356-.884.677-1.199a2.497 2.497 0 0 1 1.162-.662c.461-.115.963-.1 1.506.046.542.145.979.381 1.311.708.343.33.568.715.676 1.156.121.433.116.892-.014 1.376a3.01 3.01 0 0 1-.569 1.098 6.032 6.032 0 0 1-.963.944c-.358.294-.738.565-1.139.815ZM929.424 111.611a1.648 1.648 0 0 0-2.027 1.178 1.649 1.649 0 0 0 1.167 2.034 1.65 1.65 0 0 0 2.027-1.178 1.65 1.65 0 0 0-1.167-2.034Z"/>
</svg>