<svg xmlns="http://www.w3.org/2000/svg" fill="none" viewBox="0 0 567 236">
  <ellipse cx="86" cy="132.897" fill="#fff" rx="4" ry="5"/>
  <ellipse cx="87.5" cy="132.897" fill="#000" rx="1.5" ry="3"/>
  <ellipse cx="98" cy="132.897" fill="#fff" rx="4" ry="5"/>
  <ellipse cx="99.5" cy="132.897" fill="#000" rx="1.5" ry="3"/>
  <path stroke="#000" stroke-linecap="round" stroke-linejoin="round" stroke-width="1.5" d="M95 120.397c10.5-14 21.5-21.7 23.5-20.5 2 1.2-7.5 12.5-13.5 29 10.349 1.953 26.5 3.5 26.5 5.5 0 10-32.5 9-42.5 9"/>
  <path fill="#000" d="M131 134.397c-.5-1-4-2-6.5-2-.5 2.5 1 5 2.5 7 2.5-1 4.922-3.156 4-5Z"/>
  <path fill="#000" d="M124.5 132.397v-.75a.75.75 0 0 0-.735.603l.735.147Zm6.5 2-.671.336.671-.336Zm-4 5-.6.45.345.46.534-.213-.279-.697Zm-2.5-6.25c1.165 0 2.592.236 3.784.594.596.178 1.108.38 1.487.583.189.101.331.196.43.278a.551.551 0 0 1 .128.131l1.342-.671c-.236-.472-.734-.815-1.192-1.06-.496-.266-1.109-.502-1.763-.698-1.308-.392-2.881-.657-4.216-.657v1.5Zm5.829 1.586c.254.507.122 1.171-.604 1.98-.708.789-1.833 1.52-3.003 1.988l.557 1.393c1.329-.532 2.665-1.379 3.562-2.379.88-.98 1.498-2.316.83-3.653l-1.342.671Zm-6.564-2.483c-.289 1.445.008 2.852.544 4.126.535 1.271 1.328 2.453 2.091 3.471l1.2-.9c-.736-.982-1.444-2.049-1.909-3.153-.463-1.102-.667-2.194-.456-3.25l-1.47-.294Z"/>
  <path stroke="#000" stroke-linecap="round" stroke-linejoin="round" stroke-width="1.5" d="M92.5 119.897H89l.5-1.5c-1.5 0-5 1-8 2.5-4.5-10-12-22.625-14.5-22-2 .5 2.133 15.847 3.5 26 1 14.5 0 25-1.5 35H33c-20-2.5-13.913-30 7-30-3.5-4-8-5-13-4v-2.5c-5.5 2-9.5 3-13 8.5l-1-3c-3.5 4.5-6 5.5-6 13l-2.5-2.5c-.5 5-1 10.5 1.5 17l-4-1c2 4.5 3.5 8 8 11.5l-3 1.5c6 3 10.5 3 18 3.5v25.5M106 143.397c1 20 10 23.5 14 37-2-2-3.5-3.5-6-4.5 2.5 3.5 4.5 6 5 10.5-2-2-3.5-3-6-4 1 2.5 2 3.5 2 6-1-1-2-1-3-1-.5 4-3 6-2 10.5M110 198.397l3.5 26.5c8 0 8 5 8 9H106l-4.5-36M91.5 198.397l.5 26.5c8 0 8 5 8 9H83.5l-.5-36M33.5 197.897l-3.5 27c8 0 8 5 8 9H20.5l4.5-36M54.5 197.897l-2.5 27c8 0 8 5 8 9H42.5l3.5-36M33.5 197.897H46m8.5 0H83m8.5 0H104"/>
  <path fill="#CCED00" stroke="#000" stroke-linecap="round" stroke-linejoin="round" stroke-width="1.5" d="M94.5 165.897H87l1.5 5H93l1.5-5ZM85 183.397l3.5-12.5H93l4 12.5-6 4.5-6-4.5Z"/>
  <path stroke="#000" stroke-linecap="round" stroke-linejoin="round" stroke-width="1.5" d="M94.5 165.897c5.5-2 9-4.5 12-8m-19.5 8c-7.5-2.5-10-4-15.5-8"/>
  <circle cx="400.25" cy="171.125" r="26.75" fill="#CCED00"/>
  <path fill="#000" d="M400.154 198.182c-14.973 0-27.154-12.181-27.154-27.154 0-14.972 12.181-27.153 27.154-27.153 14.972 0 27.153 12.181 27.153 27.153s-12.181 27.154-27.153 27.154Zm0-53.024c-14.265 0-25.871 11.605-25.871 25.87s11.606 25.871 25.871 25.871c14.264 0 25.87-11.606 25.87-25.871 0-14.264-11.606-25.87-25.87-25.87Z"/>
  <path fill="#000" d="M400.154 192.194a21.029 21.029 0 0 1-14.966-6.199c-8.252-8.253-8.252-21.68.001-29.932a21.023 21.023 0 0 1 14.965-6.2 21.03 21.03 0 0 1 14.966 6.199c8.252 8.253 8.252 21.68 0 29.933a21.03 21.03 0 0 1-14.966 6.199Zm0-41.047a19.752 19.752 0 0 0-14.058 5.823c-7.752 7.752-7.752 20.365-.001 28.117a19.752 19.752 0 0 0 14.059 5.823c5.31 0 10.303-2.068 14.058-5.823 7.752-7.752 7.752-20.365 0-28.117a19.752 19.752 0 0 0-14.058-5.823ZM400.154 148.915a.642.642 0 0 1-.642-.642v-1.506a.642.642 0 0 1 1.283 0v1.506a.641.641 0 0 1-.641.642ZM400.154 195.933a.642.642 0 0 1-.642-.642v-1.506a.642.642 0 0 1 1.283 0v1.506a.642.642 0 0 1-.641.642ZM416.244 155.58a.643.643 0 0 1-.454-1.095l1.066-1.066a.642.642 0 0 1 .907.908l-1.065 1.065a.64.64 0 0 1-.454.188ZM382.998 188.826a.64.64 0 0 1-.454-1.095l1.065-1.065a.642.642 0 1 1 .908.907l-1.066 1.065a.635.635 0 0 1-.453.188Z"/>
  <path fill="#000" d="M424.416 171.67h-1.507a.641.641 0 0 1 0-1.283h1.507a.641.641 0 1 1 0 1.283ZM377.398 171.67h-1.507a.641.641 0 0 1 0-1.283h1.507a.641.641 0 1 1 0 1.283ZM417.309 188.826a.643.643 0 0 1-.454-.188l-1.065-1.065a.642.642 0 0 1 .907-.907l1.066 1.065a.642.642 0 0 1-.454 1.095ZM384.063 155.58a.643.643 0 0 1-.454-.188l-1.065-1.065a.642.642 0 1 1 .907-.908l1.065 1.066a.64.64 0 0 1-.453 1.095ZM388.776 151.964a.642.642 0 0 1-.556-.321l-.754-1.305a.642.642 0 0 1 1.112-.642l.754 1.305a.642.642 0 0 1-.556.963ZM412.285 192.682a.64.64 0 0 1-.556-.321l-.753-1.305a.642.642 0 1 1 1.112-.641l.753 1.305a.642.642 0 0 1-.556.962ZM406.044 149.691a.642.642 0 0 1-.62-.808l.389-1.455a.643.643 0 0 1 1.24.331l-.389 1.456a.644.644 0 0 1-.62.476ZM393.875 195.106a.641.641 0 0 1-.62-.808l.389-1.455a.641.641 0 1 1 1.24.332l-.389 1.455a.644.644 0 0 1-.62.476ZM419.861 160.293a.642.642 0 0 1-.322-1.198l1.305-.753a.64.64 0 1 1 .642 1.111l-1.305.754a.64.64 0 0 1-.32.086ZM379.142 183.802a.643.643 0 0 1-.321-1.198l1.305-.753a.642.642 0 0 1 .642 1.111l-1.305.754a.642.642 0 0 1-.321.086ZM423.59 177.95a.633.633 0 0 1-.167-.022l-1.456-.391a.642.642 0 0 1 .333-1.239l1.455.39a.642.642 0 0 1-.165 1.262ZM378.174 165.781a.633.633 0 0 1-.166-.023l-1.456-.389a.643.643 0 0 1 .332-1.24l1.455.39a.64.64 0 0 1-.165 1.262ZM380.447 160.293a.635.635 0 0 1-.321-.087l-1.305-.753a.641.641 0 1 1 .642-1.112l1.305.754a.641.641 0 0 1-.321 1.198ZM421.165 183.802a.632.632 0 0 1-.32-.087l-1.305-.754a.64.64 0 1 1 .642-1.11l1.304.753a.643.643 0 0 1-.321 1.198ZM394.264 149.69a.643.643 0 0 1-.62-.475l-.39-1.455a.643.643 0 0 1 1.24-.332l.39 1.454a.64.64 0 0 1-.62.808ZM406.434 195.106a.643.643 0 0 1-.62-.476l-.39-1.455a.643.643 0 0 1 1.24-.332l.391 1.455a.643.643 0 0 1-.621.808ZM411.531 151.963a.64.64 0 0 1-.555-.963l.754-1.305a.641.641 0 1 1 1.111.643l-.754 1.304a.642.642 0 0 1-.556.321ZM388.022 192.682a.64.64 0 0 1-.555-.963l.754-1.304a.641.641 0 0 1 1.111.642l-.754 1.304a.642.642 0 0 1-.556.321ZM422.134 165.78a.642.642 0 0 1-.166-1.261l1.456-.39a.643.643 0 0 1 .331 1.24l-1.455.39a.68.68 0 0 1-.166.021ZM376.718 177.95a.642.642 0 0 1-.165-1.261l1.455-.391a.642.642 0 0 1 .332 1.239l-1.455.391a.644.644 0 0 1-.167.022ZM393.786 167.584c-.92 0-1.653.737-1.653 1.663a1.65 1.65 0 0 0 1.653 1.663 1.65 1.65 0 0 0 1.653-1.663c0-.926-.733-1.663-1.653-1.663ZM401.148 172.745c.405.544.769.925 1.092 1.145.332.219.587.329.764.329.187 0 .353-.015.499-.047.145-.031.281-.068.405-.11v1.098c-.114.063-.27.11-.468.141a2.553 2.553 0 0 1-.561.063c-.218 0-.457-.047-.717-.141-.26-.084-.546-.251-.858-.502-.312-.261-.666-.643-1.061-1.145-.561.732-1.06 1.213-1.497 1.443-.426.23-.816.345-1.17.345-.187 0-.379-.021-.577-.063a1.64 1.64 0 0 1-.468-.141v-1.098c.063.021.182.053.359.094.177.042.338.063.483.063.25 0 .531-.104.843-.314.312-.219.675-.606 1.091-1.16a10.112 10.112 0 0 1-1.325-1.726c-.333-.575-.499-1.15-.499-1.725 0-.502.114-.946.343-1.333.228-.398.546-.711.951-.941.416-.231.905-.346 1.466-.346.562 0 1.045.115 1.451.346.416.23.733.543.951.941.229.387.343.831.343 1.333 0 .397-.088.8-.265 1.208a6.058 6.058 0 0 1-.686 1.16c-.271.377-.567.738-.889 1.083ZM406.652 167.584c-.921 0-1.654.737-1.654 1.663a1.65 1.65 0 0 0 1.654 1.663 1.65 1.65 0 0 0 1.653-1.663c0-.926-.733-1.663-1.653-1.663Z"/>
  <circle cx="257.25" cy="69.125" r="26.75" fill="#CCED00"/>
  <path fill="#000" d="M257.154 96.182C242.181 96.182 230 84.001 230 69.028c0-14.972 12.181-27.153 27.154-27.153 14.972 0 27.153 12.18 27.153 27.153 0 14.972-12.181 27.154-27.153 27.154Zm0-53.024c-14.265 0-25.871 11.605-25.871 25.87s11.606 25.87 25.871 25.87c14.264 0 25.87-11.605 25.87-25.87 0-14.264-11.606-25.87-25.87-25.87Z"/>
  <path fill="#000" d="M257.154 90.194a21.025 21.025 0 0 1-14.966-6.2c-8.252-8.252-8.252-21.68.001-29.931a21.023 21.023 0 0 1 14.965-6.2 21.028 21.028 0 0 1 14.966 6.2c8.252 8.252 8.252 21.68 0 29.931a21.027 21.027 0 0 1-14.966 6.2Zm0-41.047a19.75 19.75 0 0 0-14.058 5.823c-7.752 7.752-7.752 20.365-.001 28.117a19.753 19.753 0 0 0 14.059 5.823 19.75 19.75 0 0 0 14.058-5.823c7.752-7.752 7.752-20.366 0-28.118a19.754 19.754 0 0 0-14.058-5.822ZM257.154 46.915a.642.642 0 0 1-.642-.642v-1.506a.642.642 0 0 1 1.283 0v1.506a.641.641 0 0 1-.641.642ZM257.154 93.933a.642.642 0 0 1-.642-.642v-1.506a.642.642 0 0 1 1.283 0v1.506a.641.641 0 0 1-.641.642ZM273.244 53.58a.642.642 0 0 1-.454-1.095l1.066-1.066a.641.641 0 1 1 .907.908l-1.065 1.065a.64.64 0 0 1-.454.188ZM239.998 86.826a.64.64 0 0 1-.454-1.095l1.065-1.065a.642.642 0 0 1 .908.907l-1.066 1.065a.637.637 0 0 1-.453.188Z"/>
  <path fill="#000" d="M281.416 69.67h-1.507a.641.641 0 0 1 0-1.283h1.507a.641.641 0 1 1 0 1.283ZM234.398 69.67h-1.507a.641.641 0 0 1 0-1.283h1.507a.641.641 0 1 1 0 1.283ZM274.309 86.826a.642.642 0 0 1-.454-.188l-1.065-1.065a.643.643 0 0 1 .907-.907l1.066 1.065a.643.643 0 0 1-.454 1.095ZM241.063 53.58a.642.642 0 0 1-.454-.188l-1.065-1.065a.64.64 0 1 1 .907-.908l1.065 1.066a.64.64 0 0 1-.453 1.095ZM245.776 49.964a.642.642 0 0 1-.556-.321l-.754-1.305a.642.642 0 0 1 1.112-.642l.753 1.305a.64.64 0 0 1-.555.963ZM269.285 90.682a.641.641 0 0 1-.556-.321l-.753-1.305a.642.642 0 1 1 1.112-.641l.753 1.305a.643.643 0 0 1-.556.962ZM263.044 47.69a.642.642 0 0 1-.62-.808l.389-1.454a.641.641 0 1 1 1.24.331l-.389 1.456a.643.643 0 0 1-.62.476ZM250.875 93.106a.642.642 0 0 1-.62-.808l.389-1.455a.642.642 0 1 1 1.24.332l-.389 1.455a.643.643 0 0 1-.62.476ZM276.861 58.293a.643.643 0 0 1-.322-1.197l1.305-.754a.641.641 0 1 1 .642 1.111l-1.305.754a.639.639 0 0 1-.32.086ZM236.142 81.802a.642.642 0 0 1-.321-1.198l1.305-.753a.642.642 0 0 1 .642 1.112l-1.305.753a.64.64 0 0 1-.321.086ZM280.59 75.95a.634.634 0 0 1-.167-.023l-1.456-.39a.641.641 0 1 1 .333-1.24l1.455.39a.643.643 0 0 1-.165 1.263ZM235.174 63.78a.636.636 0 0 1-.166-.022l-1.456-.39a.643.643 0 0 1 .332-1.239l1.455.39a.642.642 0 0 1-.165 1.262ZM237.447 58.293a.639.639 0 0 1-.321-.087l-1.305-.753a.64.64 0 1 1 .642-1.112l1.305.754a.642.642 0 0 1-.321 1.198ZM278.165 81.802a.635.635 0 0 1-.32-.087l-1.305-.754a.64.64 0 1 1 .642-1.11l1.304.753a.642.642 0 0 1-.321 1.198ZM251.264 47.69a.643.643 0 0 1-.62-.475l-.39-1.455a.643.643 0 0 1 1.24-.332l.39 1.454a.641.641 0 0 1-.62.809ZM263.434 93.106a.643.643 0 0 1-.62-.476l-.39-1.455a.643.643 0 0 1 1.24-.332l.391 1.455a.643.643 0 0 1-.621.808ZM268.531 49.963a.642.642 0 0 1-.555-.963l.754-1.304a.641.641 0 1 1 1.111.642l-.754 1.304a.642.642 0 0 1-.556.321ZM245.022 90.682a.642.642 0 0 1-.555-.963l.754-1.304a.64.64 0 1 1 1.111.642l-.754 1.304a.642.642 0 0 1-.556.321ZM279.134 63.78a.642.642 0 0 1-.166-1.261l1.456-.39a.642.642 0 0 1 .331 1.24l-1.455.39a.654.654 0 0 1-.166.021ZM233.718 75.95a.642.642 0 0 1-.165-1.261l1.455-.391a.642.642 0 0 1 .332 1.24l-1.455.39a.628.628 0 0 1-.167.022ZM250.116 67.366a1.648 1.648 0 0 0-1.166 2.034 1.648 1.648 0 0 0 2.027 1.178 1.65 1.65 0 0 0 1.167-2.034 1.65 1.65 0 0 0-2.028-1.178ZM258.563 70.445c.532.42.982.695 1.351.824.378.126.652.166.823.12a2.37 2.37 0 0 0 .47-.174 3.74 3.74 0 0 0 .363-.211l.284 1.06c-.094.09-.232.176-.415.258-.17.089-.345.157-.526.206a2.125 2.125 0 0 1-.73.049c-.272-.013-.592-.101-.958-.263-.369-.172-.809-.449-1.321-.831-.353.852-.71 1.446-1.073 1.781-.352.333-.699.545-1.04.636a2.785 2.785 0 0 1-.574.089 1.65 1.65 0 0 1-.488-.015l-.285-1.06c.066.003.19.002.371-.003.182-.005.343-.027.484-.064.241-.065.485-.239.732-.521.244-.293.496-.761.754-1.404a10.08 10.08 0 0 1-1.727-1.324c-.47-.47-.78-.981-.929-1.537a2.567 2.567 0 0 1-.013-1.377c.118-.443.343-.828.675-1.155.342-.33.784-.567 1.327-.713.542-.145 1.039-.16 1.49-.042.461.115.849.336 1.163.663.321.314.546.714.676 1.199.103.384.122.796.057 1.235-.068.43-.189.863-.363 1.299-.163.434-.356.859-.578 1.275ZM262.543 64.036a1.648 1.648 0 0 0-1.166 2.034 1.648 1.648 0 0 0 2.027 1.178 1.65 1.65 0 0 0 1.167-2.034 1.65 1.65 0 0 0-2.028-1.178Z"/>
  <circle cx="539.25" cy="28.125" r="26.75" fill="#CCED00"/>
  <path fill="#000" d="M539.154 55.182C524.181 55.182 512 43.001 512 28.028 512 13.056 524.181.875 539.154.875c14.972 0 27.153 12.18 27.153 27.153 0 14.972-12.181 27.154-27.153 27.154Zm0-53.024c-14.265 0-25.871 11.605-25.871 25.87s11.606 25.87 25.871 25.87c14.264 0 25.87-11.605 25.87-25.87 0-14.264-11.606-25.87-25.87-25.87Z"/>
  <path fill="#000" d="M539.154 49.194a21.025 21.025 0 0 1-14.966-6.2c-8.252-8.252-8.252-21.68.001-29.931a21.023 21.023 0 0 1 14.965-6.2 21.028 21.028 0 0 1 14.966 6.2c8.252 8.252 8.252 21.68 0 29.931a21.027 21.027 0 0 1-14.966 6.2Zm0-41.047a19.75 19.75 0 0 0-14.058 5.823c-7.752 7.751-7.752 20.365-.001 28.117a19.753 19.753 0 0 0 14.059 5.823 19.75 19.75 0 0 0 14.058-5.823c7.752-7.752 7.752-20.366 0-28.118a19.753 19.753 0 0 0-14.058-5.822ZM539.154 5.915a.642.642 0 0 1-.642-.642V3.767a.642.642 0 0 1 1.283 0v1.506a.641.641 0 0 1-.641.642ZM539.154 52.933a.642.642 0 0 1-.642-.642v-1.506a.642.642 0 0 1 1.283 0v1.506a.641.641 0 0 1-.641.642ZM555.244 12.58a.642.642 0 0 1-.454-1.095l1.066-1.066a.641.641 0 1 1 .907.908l-1.065 1.065a.64.64 0 0 1-.454.188ZM521.998 45.826a.64.64 0 0 1-.454-1.095l1.065-1.065a.642.642 0 0 1 .908.907l-1.066 1.065a.637.637 0 0 1-.453.188Z"/>
  <path fill="#000" d="M563.416 28.67h-1.507a.641.641 0 0 1 0-1.283h1.507a.641.641 0 1 1 0 1.283ZM516.398 28.67h-1.507a.641.641 0 0 1 0-1.283h1.507a.641.641 0 1 1 0 1.283ZM556.309 45.826a.642.642 0 0 1-.454-.188l-1.065-1.065a.643.643 0 0 1 .907-.907l1.066 1.065a.643.643 0 0 1-.454 1.095ZM523.063 12.58a.642.642 0 0 1-.454-.188l-1.065-1.065a.64.64 0 1 1 .907-.908l1.065 1.066a.64.64 0 0 1-.453 1.095ZM527.776 8.964a.642.642 0 0 1-.556-.321l-.754-1.305a.642.642 0 0 1 1.112-.642l.753 1.305a.64.64 0 0 1-.555.963ZM551.285 49.682a.641.641 0 0 1-.556-.321l-.753-1.305a.642.642 0 1 1 1.112-.641l.753 1.305a.643.643 0 0 1-.556.962ZM545.044 6.69a.643.643 0 0 1-.62-.808l.389-1.454a.641.641 0 1 1 1.24.331l-.389 1.456a.643.643 0 0 1-.62.476ZM532.875 52.106a.642.642 0 0 1-.62-.808l.389-1.455a.642.642 0 1 1 1.24.332l-.389 1.455a.643.643 0 0 1-.62.476ZM558.861 17.293a.643.643 0 0 1-.322-1.197l1.305-.754a.641.641 0 1 1 .642 1.111l-1.305.754a.639.639 0 0 1-.32.086ZM518.142 40.802a.642.642 0 0 1-.321-1.198l1.305-.753a.642.642 0 0 1 .642 1.111l-1.305.754a.64.64 0 0 1-.321.086ZM562.59 34.95a.634.634 0 0 1-.167-.023l-1.456-.39a.641.641 0 1 1 .333-1.24l1.455.39a.643.643 0 0 1-.165 1.263ZM517.174 22.78a.636.636 0 0 1-.166-.022l-1.456-.39a.643.643 0 0 1 .332-1.239l1.455.39a.642.642 0 0 1-.165 1.262ZM519.447 17.293a.639.639 0 0 1-.321-.087l-1.305-.753a.64.64 0 1 1 .642-1.112l1.305.754a.642.642 0 0 1-.321 1.198ZM560.165 40.802a.635.635 0 0 1-.32-.087l-1.305-.754a.64.64 0 1 1 .642-1.11l1.304.753a.642.642 0 0 1-.321 1.198ZM533.264 6.69a.643.643 0 0 1-.62-.475l-.39-1.455a.643.643 0 0 1 1.24-.332l.39 1.454a.641.641 0 0 1-.62.808ZM545.434 52.106a.643.643 0 0 1-.62-.476l-.39-1.455a.643.643 0 0 1 1.24-.332l.391 1.455a.643.643 0 0 1-.621.808ZM550.531 8.963a.642.642 0 0 1-.555-.963l.754-1.305a.64.64 0 1 1 1.111.643l-.754 1.304a.642.642 0 0 1-.556.321ZM527.022 49.682a.642.642 0 0 1-.555-.963l.754-1.304a.64.64 0 1 1 1.111.642l-.754 1.304a.642.642 0 0 1-.556.321ZM561.134 22.78a.642.642 0 0 1-.166-1.261l1.456-.39a.642.642 0 0 1 .331 1.24l-1.455.39a.654.654 0 0 1-.166.021ZM515.718 34.95a.642.642 0 0 1-.165-1.261l1.455-.391a.642.642 0 0 1 .332 1.24l-1.455.39a.628.628 0 0 1-.167.022ZM533.894 23.036a1.65 1.65 0 0 0-2.027 1.178 1.65 1.65 0 0 0 1.167 2.034 1.648 1.648 0 0 0 2.027-1.178 1.649 1.649 0 0 0-1.167-2.034ZM539.67 29.926c.251.63.503 1.094.758 1.389.264.298.482.47.653.516.181.048.345.076.494.084.149.007.289.007.42-.001l-.284 1.06c-.127.031-.29.036-.489.015a2.564 2.564 0 0 1-.558-.084 2.125 2.125 0 0 1-.657-.322c-.229-.148-.462-.384-.698-.707-.234-.333-.477-.794-.728-1.38-.732.561-1.339.896-1.82 1.006-.471.112-.878.122-1.219.03a2.775 2.775 0 0 1-.541-.21 1.65 1.65 0 0 1-.416-.257l.284-1.06c.055.036.163.097.322.183.16.086.311.148.451.186.241.064.539.036.895-.085.358-.132.81-.411 1.355-.839a10.076 10.076 0 0 1-.834-2.01c-.173-.641-.184-1.24-.036-1.795.13-.485.356-.885.677-1.2a2.5 2.5 0 0 1 1.162-.662c.462-.115.964-.1 1.506.046.542.145.98.381 1.312.709.342.33.567.715.675 1.155.121.433.116.892-.014 1.377a3.01 3.01 0 0 1-.568 1.098 6.075 6.075 0 0 1-.964.943c-.358.294-.738.566-1.138.815ZM546.321 26.366a1.65 1.65 0 0 0-2.027 1.178 1.65 1.65 0 0 0 1.167 2.034 1.648 1.648 0 0 0 2.027-1.178 1.649 1.649 0 0 0-1.167-2.034Z"/>
</svg>
