<svg xmlns="http://www.w3.org/2000/svg" fill="none" viewBox="0 0 316 224">
  <path fill="#CCED00" stroke="#000" stroke-width="1.5" d="m122.824 39.6996 109.7516-12.8393 18.184 155.44-109.7515 12.8393z"/>
  <path fill="#CCED00" stroke="#000" stroke-width="1.5" d="M64.8712 44.5096 173.8204 24.871 201.58 178.8731 92.6308 198.5117z"/>
  <path fill="#CCED00" stroke="#000" stroke-width="1.5" d="m76.0938 56.1682 46.2274-8.3327 10.4028 57.7116-46.2274 8.3327z"/>
  <ellipse cx="97.0005" cy="81.1285" fill="#fff" rx="2.3569" ry="2.9461" transform="rotate(-10.22 97.0005 81.1285)"/>
  <path fill="#000" stroke="#000" stroke-width=".5" d="M97.3448 83.1166c.3836-.0691.6098-.4243.7188-.796.1137-.3878.1312-.8805.0392-1.3908-.092-.5103-.2804-.9659-.5223-1.2895-.232-.3103-.5679-.5642-.9515-.495-.3836.0691-.6097.4243-.7188.796-.1137.3878-.1311.8805-.0391 1.3908.092.5103.2803.9659.5223 1.2895.2319.3103.5679.5642.9514.495Z"/>
  <ellipse cx="103.959" cy="79.8741" fill="#fff" rx="2.3569" ry="2.9461" transform="rotate(-10.22 103.959 79.8741)"/>
  <path fill="#000" stroke="#000" stroke-width=".5" d="M104.303 81.8623c.384-.0691.61-.4244.719-.7961.114-.3877.131-.8804.039-1.3907-.092-.5103-.28-.9659-.522-1.2895-.232-.3103-.568-.5642-.951-.495-.384.0691-.61.4243-.719.796-.114.3878-.131.8805-.039 1.3908.092.5103.28.9659.522 1.2895.232.3103.568.5642.951.495Z"/>
  <path stroke="#000" stroke-linecap="round" stroke-linejoin="round" stroke-width="1.5" d="M100.913 72.9394c4.625-9.216 10.199-14.8307 11.484-14.3439 1.286.4868-3.042 8.0323-4.797 18.2275 6.205.0506 15.733-.7404 15.942.4194 1.045 5.7987-17.905 8.616-23.7042 9.6614"/>
  <path fill="#000" d="M123.252 77.2947c-.394-.5277-2.528-.7417-3.978-.4804-.029 1.502 1.102 2.7949 2.181 3.7978 1.345-.8411 2.524-2.3446 1.797-3.3174Z"/>
  <path fill="#000" d="m119.274 76.8143-.089-.4921a.5009.5009 0 0 0-.411.4826l.5.0095Zm3.978.4804-.4.2993.4-.2993Zm-1.797 3.3174-.34.3662.28.261.325-.2032-.265-.424Zm-2.092-3.3057c.669-.1207 1.515-.1332 2.239-.051.362.0411.675.1039.912.1805.263.0853.338.1589.338.1581l.801-.5987c-.198-.2646-.538-.4156-.831-.5107-.32-.1037-.704-.177-1.107-.2228-.804-.0913-1.749-.0802-2.53.0604l.178.9842Zm3.489.2876c.178.2388.185.6087-.147 1.1461-.322.5222-.89 1.0576-1.515 1.4481l.53.8479c.721-.4507 1.415-1.0876 1.836-1.7707.413-.6678.645-1.536.097-2.2701l-.801.5987Zm-4.078-.7892c-.017.8831.308 1.6798.756 2.3682.447.6871 1.034 1.2936 1.585 1.8053l.681-.7323c-.529-.4913-1.046-1.0327-1.428-1.6184-.38-.5842-.606-1.185-.594-1.8038l-1-.019Z"/>
  <path stroke="#000" stroke-linecap="round" stroke-linejoin="round" stroke-width="1.5" d="M89.6718 103.58c1.3137-7.0772-.4002-17.1667-2.4957-25.4704-1.8539-5.745-5.8547-14.2121-4.7472-14.711 1.3843-.6237 7.0531 5.9133 10.7078 11.2417 1.5828-1.1834 3.5079-2.1291 4.3777-2.2859l-.1332.9221 1.3579-.2448"/>
  <path stroke="#000" stroke-linecap="round" stroke-linejoin="round" stroke-width="1.5" d="M111.268 90.1105c-7.56 8.6596-12.2161 8.1306-21.2018 3.8217"/>
  <path stroke="#000" stroke-linecap="round" stroke-linejoin="round" stroke-width="1.5" d="M109.696 85.1267c2.129 8.0757 3.975 8.1989 7.979 15.2303"/>
  <path fill="#000" d="M100.628 86.6196c-.272-.3117-.7463-.3433-1.0581-.0706a.75.75 0 0 0-.0706 1.0583l1.1287-.9877Zm-1.1287.9877c1.8057 2.0638 3.8997 2.8986 5.3937 2.4724.794-.2267 1.394-.8243 1.512-1.6937.111-.8126-.22-1.7118-.882-2.5974l-1.201.8982c.54.7219.633 1.2284.597 1.4969-.029.2117-.148.3707-.438.4536-.675.1927-2.212-.1422-3.853-2.0177l-1.1287.9877ZM131.976 61.7509l38.8696-7.0064.2388 1.3251-38.8695 7.0064zM132.932 67.0513l21.2016-3.8217.2389 1.3252-21.2016 3.8216zM155.9 62.9112l15.9012-2.8663.2389 1.3252-15.9012 2.8662zM133.887 72.3517l30.0356-5.414.239 1.325-30.0357 5.4141zM165.689 66.6193l7.0672-1.2739.2389 1.3251-7.0672 1.274zM134.842 77.6522l38.8696-7.0064.2388 1.3251-38.8695 7.0064zM135.798 82.9525l38.8696-7.0064.2388 1.3251-38.8695 7.0064zM136.753 88.253l12.3676-2.2293.2388 1.3251-12.3675 2.2293zM150.888 85.7052l24.7352-4.4586.2388 1.3251-24.7351 4.4586zM137.709 93.5533l38.8696-7.0064.2388 1.3251-38.8695 7.0064zM138.664 98.8538l38.8696-7.0064.2388 1.3251-38.8695 7.0064zM139.619 104.154l30.0356-5.414.239 1.325-30.0357 5.4141zM86.6874 119.168l48.587-8.758.2388 1.3251-48.587 8.758zM87.6429 124.468l27.3854-4.9363.2388 1.3251-27.3853 4.9363zM88.5982 129.769l48.587-8.758.2388 1.3251-48.587 8.758zM89.5537 135.069l53.8875-9.7135.2388 1.3252-53.8874 9.7134zM145.208 125.037l37.1029-6.688.2388 1.3252-37.1028 6.688zM90.5092 140.37l27.3854-4.9363.2388 1.3251-27.3853 4.9363zM91.4645 145.67l92.757-16.7199.2389 1.3252-92.757 16.7198zM92.42 150.97l39.753-7.1657.2389 1.3252-39.753 7.1656zM93.3752 156.271l39.753-7.1657.2389 1.3252-39.753 7.1656zM133.94 143.486l51.2372-9.2357.2388 1.3251-51.2371 9.2357zM134.895 148.787l51.2372-9.2357.2388 1.3251-51.2371 9.2357zM94.3307 161.571l48.587-8.758.2388 1.3251-48.587 8.758zM137.041 110.091l24.7352-4.4586.2388 1.3251-24.7351 4.4586zM163.543 105.314l15.9012-2.8663.2389 1.3252-15.9012 2.8662zM138.952 120.692l42.4032-7.6434.2389 1.3252-42.4032 7.6433zM144.685 152.495l24.7352-4.4586.2388 1.3251-24.7351 4.4586zM171.187 147.718l15.9012-2.8663.2389 1.3252-15.9012 2.8662zM95.2862 166.872l27.3854-4.9363.2388 1.3251-27.3853 4.9363zM116.795 119.214l36.2194-6.5287.2389 1.3251-36.2194 6.5287zM119.661 135.115l36.2194-6.5287.2389 1.3251-36.2194 6.5287zM157.647 128.268l25.6186-4.6179.2389 1.3252-25.6186 4.6178zM124.438 161.617l36.2194-6.5287.2389 1.3251-36.2194 6.5287zM154.781 112.366l25.6186-4.6179.2389 1.3252-25.6186 4.6178zM162.425 154.77l25.6186-4.6179.2389 1.3252-25.6186 4.6178zM96.2415 172.172l92.757-16.7199.2389 1.3252-92.757 16.7198zM97.197 177.472l53.8875-9.7135.2388 1.3252-53.8874 9.7134zM152.851 167.44l37.1029-6.688.2388 1.3252-37.1028 6.688zM98.1525 182.773l39.753-7.1657.2389 1.3252-39.753 7.1656z"/>
  <mask id="a" width="41.9463" height="16.1304" x="128.426" y="40.42" fill="#000" maskUnits="userSpaceOnUse">
    <path fill="#fff" d="M128.426 40.42h41.9463v16.1304H128.426z"/>
    <path d="M129.689 49.0617c-.044-.2443.076-.4172.32-.4612l1.71-.3082c1.477-.2664 2.863.0765 3.165 1.7495.297 1.6486-.875 2.4903-2.353 2.7566l-1.355.2443.4 2.2226c.049.2686-.084.4438-.303.4834-.22.0396-.393-.0805-.442-.3491l-1.142-6.3379Zm.798.1588.565 3.1384 1.38-.2487c1.099-.1982 1.883-.8185 1.682-1.9297-.204-1.1357-1.148-1.4069-2.247-1.2088l-1.38.2488ZM138.027 54.3547c-.245.0441-.418-.0761-.462-.3203l-1.116-6.1913c-.044-.2443.077-.4172.321-.4612l4.017-.7242c.269-.0485.432.0861.467.2815.035.1953-.07.3783-.339.4267-.562.1013-2.827.4719-3.672.6116l.438 2.4301c.84-.1641 2.301-.4527 2.704-.5253.269-.0484.432.0861.467.2815.035.1954-.07.3783-.339.4268-.403.0726-1.812.3013-2.718.452l.467 2.5889c.914-.1773 3.093-.608 3.655-.7092.268-.0485.431.0861.466.2815.036.1954-.07.3783-.339.4267l-4.017.7242ZM143.607 47.776c-.208.0374-.379-.0705-.416-.2781-.024-.1343.015-.2675.105-.3972.408-.6031 1.083-1.2669 2.316-1.4892 1.185-.2135 2.438.3044 2.656 1.5134.136.7571-.213 1.4758-1.016 1.8475.899-.0486 1.722.4587 1.884 1.3624.21 1.1601-.655 2.3119-2.34 2.6157-1.196.2157-2.154-.1287-2.722-.5557-.161-.1223-.269-.2291-.297-.3878-.033-.1832.082-.3806.29-.418.159-.0286.284.0371.474.1794.63.4915 1.397.6181 2.13.486 1.038-.1871 1.855-.9017 1.698-1.7687-.156-.867-1.089-1.0771-2.129-.9022-.257.0462-.46-.0307-.504-.2749-.044-.2443.136-.365.364-.4312.93-.2938 1.548-.7834 1.399-1.6138-.152-.8426-1.029-1.0881-1.798-.9495-.782.1409-1.295.5108-1.751 1.1983-.122.1607-.209.2394-.343.2636ZM154.668 51.5316c-1.453.2619-2.293-1.1122-2.694-3.0573l-1.197.2157.543 3.0163c.049.2687-.083.4438-.303.4834-.22.0397-.393-.0805-.441-.3491l-1.169-6.4844c-.049-.2687.071-.4416.291-.4813.22-.0396.405.0783.454.347l.502 2.7843 1.208-.218c-.256-1.8449.095-3.3205 1.488-3.5714 1.502-.2708 2.364 1.2255 2.734 3.2771.372 2.0637.086 3.7669-1.416 4.0377Zm-.125-.6961c.952-.1717 1.09-1.5077.784-3.2052-.306-1.6974-.899-2.8892-1.852-2.7175-.953.1717-1.08 1.4934-.774 3.1908.306 1.6974.889 2.9036 1.842 2.7319ZM156.499 44.0903c-.053-.293.07-.4538.289-.4934.22-.0396.375.1215.525.3215l2.509 3.2169 1.228-3.8904c.07-.2397.159-.4448.379-.4845.22-.0396.39.0683.443.3614l1.167 6.4722c.048.2687-.072.4416-.292.4812-.219.0397-.405-.0783-.453-.3469l-.938-5.2022-1.006 3.2326c-.082.2418-.174.3593-.345.3901-.171.0308-.299-.047-.461-.2448l-2.071-2.6779.938 5.2022c.048.2686-.072.4416-.292.4812-.22.0396-.405-.0783-.453-.347l-1.167-6.4722ZM165.362 49.4275c-.244.044-.417-.0761-.461-.3204l-1.116-6.1913c-.044-.2442.076-.4172.32-.4612l4.018-.7242c.268-.0484.431.0861.466.2815.036.1954-.07.3784-.339.4268-.562.1012-2.827.4718-3.672.6115l.438 2.4301c.84-.1641 2.301-.4526 2.704-.5253.269-.0484.432.0861.467.2815.035.1954-.07.3784-.339.4268-.403.0726-1.812.3014-2.718.452l.467 2.5889c.914-.1773 3.093-.6079 3.655-.7092.268-.0484.431.0861.467.2815.035.1954-.071.3784-.34.4268l-4.017.7242Z"/>
  </mask>
  <path fill="#000" d="M129.689 49.0617c-.044-.2443.076-.4172.32-.4612l1.71-.3082c1.477-.2664 2.863.0765 3.165 1.7495.297 1.6486-.875 2.4903-2.353 2.7566l-1.355.2443.4 2.2226c.049.2686-.084.4438-.303.4834-.22.0396-.393-.0805-.442-.3491l-1.142-6.3379Zm.798.1588.565 3.1384 1.38-.2487c1.099-.1982 1.883-.8185 1.682-1.9297-.204-1.1357-1.148-1.4069-2.247-1.2088l-1.38.2488ZM138.027 54.3547c-.245.0441-.418-.0761-.462-.3203l-1.116-6.1913c-.044-.2443.077-.4172.321-.4612l4.017-.7242c.269-.0485.432.0861.467.2815.035.1953-.07.3783-.339.4267-.562.1013-2.827.4719-3.672.6116l.438 2.4301c.84-.1641 2.301-.4527 2.704-.5253.269-.0484.432.0861.467.2815.035.1954-.07.3783-.339.4268-.403.0726-1.812.3013-2.718.452l.467 2.5889c.914-.1773 3.093-.608 3.655-.7092.268-.0485.431.0861.466.2815.036.1954-.07.3783-.339.4267l-4.017.7242ZM143.607 47.776c-.208.0374-.379-.0705-.416-.2781-.024-.1343.015-.2675.105-.3972.408-.6031 1.083-1.2669 2.316-1.4892 1.185-.2135 2.438.3044 2.656 1.5134.136.7571-.213 1.4758-1.016 1.8475.899-.0486 1.722.4587 1.884 1.3624.21 1.1601-.655 2.3119-2.34 2.6157-1.196.2157-2.154-.1287-2.722-.5557-.161-.1223-.269-.2291-.297-.3878-.033-.1832.082-.3806.29-.418.159-.0286.284.0371.474.1794.63.4915 1.397.6181 2.13.486 1.038-.1871 1.855-.9017 1.698-1.7687-.156-.867-1.089-1.0771-2.129-.9022-.257.0462-.46-.0307-.504-.2749-.044-.2443.136-.365.364-.4312.93-.2938 1.548-.7834 1.399-1.6138-.152-.8426-1.029-1.0881-1.798-.9495-.782.1409-1.295.5108-1.751 1.1983-.122.1607-.209.2394-.343.2636ZM154.668 51.5316c-1.453.2619-2.293-1.1122-2.694-3.0573l-1.197.2157.543 3.0163c.049.2687-.083.4438-.303.4834-.22.0397-.393-.0805-.441-.3491l-1.169-6.4844c-.049-.2687.071-.4416.291-.4813.22-.0396.405.0783.454.347l.502 2.7843 1.208-.218c-.256-1.8449.095-3.3205 1.488-3.5714 1.502-.2708 2.364 1.2255 2.734 3.2771.372 2.0637.086 3.7669-1.416 4.0377Zm-.125-.6961c.952-.1717 1.09-1.5077.784-3.2052-.306-1.6974-.899-2.8892-1.852-2.7175-.953.1717-1.08 1.4934-.774 3.1908.306 1.6974.889 2.9036 1.842 2.7319ZM156.499 44.0903c-.053-.293.07-.4538.289-.4934.22-.0396.375.1215.525.3215l2.509 3.2169 1.228-3.8904c.07-.2397.159-.4448.379-.4845.22-.0396.39.0683.443.3614l1.167 6.4722c.048.2687-.072.4416-.292.4812-.219.0397-.405-.0783-.453-.3469l-.938-5.2022-1.006 3.2326c-.082.2418-.174.3593-.345.3901-.171.0308-.299-.047-.461-.2448l-2.071-2.6779.938 5.2022c.048.2686-.072.4416-.292.4812-.22.0396-.405-.0783-.453-.347l-1.167-6.4722ZM165.362 49.4275c-.244.044-.417-.0761-.461-.3204l-1.116-6.1913c-.044-.2442.076-.4172.32-.4612l4.018-.7242c.268-.0484.431.0861.466.2815.036.1954-.07.3784-.339.4268-.562.1012-2.827.4718-3.672.6115l.438 2.4301c.84-.1641 2.301-.4526 2.704-.5253.269-.0484.432.0861.467.2815.035.1954-.07.3784-.339.4268-.403.0726-1.812.3014-2.718.452l.467 2.5889c.914-.1773 3.093-.6079 3.655-.7092.268-.0484.431.0861.467.2815.035.1954-.071.3784-.34.4268l-4.017.7242Z"/>
  <path stroke="#000" stroke-width=".4" d="M129.689 49.0617c-.044-.2443.076-.4172.32-.4612l1.71-.3082c1.477-.2664 2.863.0765 3.165 1.7495.297 1.6486-.875 2.4903-2.353 2.7566l-1.355.2443.4 2.2226c.049.2686-.084.4438-.303.4834-.22.0396-.393-.0805-.442-.3491l-1.142-6.3379Zm.798.1588.565 3.1384 1.38-.2487c1.099-.1982 1.883-.8185 1.682-1.9297-.204-1.1357-1.148-1.4069-2.247-1.2088l-1.38.2488ZM138.027 54.3547c-.245.0441-.418-.0761-.462-.3203l-1.116-6.1913c-.044-.2443.077-.4172.321-.4612l4.017-.7242c.269-.0485.432.0861.467.2815.035.1953-.07.3783-.339.4267-.562.1013-2.827.4719-3.672.6116l.438 2.4301c.84-.1641 2.301-.4527 2.704-.5253.269-.0484.432.0861.467.2815.035.1954-.07.3783-.339.4268-.403.0726-1.812.3013-2.718.452l.467 2.5889c.914-.1773 3.093-.608 3.655-.7092.268-.0485.431.0861.466.2815.036.1954-.07.3783-.339.4267l-4.017.7242ZM143.607 47.776c-.208.0374-.379-.0705-.416-.2781-.024-.1343.015-.2675.105-.3972.408-.6031 1.083-1.2669 2.316-1.4892 1.185-.2135 2.438.3044 2.656 1.5134.136.7571-.213 1.4758-1.016 1.8475.899-.0486 1.722.4587 1.884 1.3624.21 1.1601-.655 2.3119-2.34 2.6157-1.196.2157-2.154-.1287-2.722-.5557-.161-.1223-.269-.2291-.297-.3878-.033-.1832.082-.3806.29-.418.159-.0286.284.0371.474.1794.63.4915 1.397.6181 2.13.486 1.038-.1871 1.855-.9017 1.698-1.7687-.156-.867-1.089-1.0771-2.129-.9022-.257.0462-.46-.0307-.504-.2749-.044-.2443.136-.365.364-.4312.93-.2938 1.548-.7834 1.399-1.6138-.152-.8426-1.029-1.0881-1.798-.9495-.782.1409-1.295.5108-1.751 1.1983-.122.1607-.209.2394-.343.2636ZM154.668 51.5316c-1.453.2619-2.293-1.1122-2.694-3.0573l-1.197.2157.543 3.0163c.049.2687-.083.4438-.303.4834-.22.0397-.393-.0805-.441-.3491l-1.169-6.4844c-.049-.2687.071-.4416.291-.4813.22-.0396.405.0783.454.347l.502 2.7843 1.208-.218c-.256-1.8449.095-3.3205 1.488-3.5714 1.502-.2708 2.364 1.2255 2.734 3.2771.372 2.0637.086 3.7669-1.416 4.0377Zm-.125-.6961c.952-.1717 1.09-1.5077.784-3.2052-.306-1.6974-.899-2.8892-1.852-2.7175-.953.1717-1.08 1.4934-.774 3.1908.306 1.6974.889 2.9036 1.842 2.7319ZM156.499 44.0903c-.053-.293.07-.4538.289-.4934.22-.0396.375.1215.525.3215l2.509 3.2169 1.228-3.8904c.07-.2397.159-.4448.379-.4845.22-.0396.39.0683.443.3614l1.167 6.4722c.048.2687-.072.4416-.292.4812-.219.0397-.405-.0783-.453-.3469l-.938-5.2022-1.006 3.2326c-.082.2418-.174.3593-.345.3901-.171.0308-.299-.047-.461-.2448l-2.071-2.6779.938 5.2022c.048.2686-.072.4416-.292.4812-.22.0396-.405-.0783-.453-.347l-1.167-6.4722ZM165.362 49.4275c-.244.044-.417-.0761-.461-.3204l-1.116-6.1913c-.044-.2442.076-.4172.32-.4612l4.018-.7242c.268-.0484.431.0861.466.2815.036.1954-.07.3784-.339.4268-.562.1012-2.827.4718-3.672.6115l.438 2.4301c.84-.1641 2.301-.4526 2.704-.5253.269-.0484.432.0861.467.2815.035.1954-.07.3784-.339.4268-.403.0726-1.812.3014-2.718.452l.467 2.5889c.914-.1773 3.093-.6079 3.655-.7092.268-.0484.431.0861.467.2815.035.1954-.071.3784-.34.4268l-4.017.7242Z" mask="url(#a)"/>
  <rect width="3.5" height="9.5" x="215.834" y="25.2528" stroke="#000" stroke-width="1.5" rx="1.75" transform="rotate(-6.87 215.834 25.2528)"/>
</svg>
