<svg xmlns="http://www.w3.org/2000/svg" fill="none" viewBox="0 0 1016 1093"><path fill="#020202" d="M788 733.75c82 63 164 34 164 34s-124.3-69-148-150c0 0 22 11 40 0 0 0-88-94-92-216s123-386 92-401-212 199-212 199l-26-8s-83 61-84 200 101 176 139 211c49.98 46.04 45 68 127 131zm-366-392c41 169-186 221-186 221s32.75-90 14-233-134-314-92-314 223 157 264 326z"/><path stroke="#000" stroke-linecap="round" stroke-width="8" d="M634 203.75s-44.5-16-78.5-24-87.19-52.4-81.5-27c3.16 14.1 14 27 14 27l-57-3"/><ellipse cx="337" cy="375.25" fill="#fff" rx="43" ry="60.5"/><ellipse cx="606" cy="382.25" fill="#fff" rx="43" ry="60.5"/><path stroke="#000" stroke-linecap="round" stroke-width="8" d="M582 643.75c-17 1-32-14-32-14s-68 71-264 65c-116.58-3.56-166.64-41.8-188.08-72.2-13.14-18.64 2.57-39.16 25.19-41.98 58.87-7.35 165.48-25.94 214.39-67.82"/><ellipse cx="327" cy="362.25" fill="#000" rx="21" ry="36.5" transform="rotate(14.26 327 362.25)"/><ellipse cx="596" cy="369.25" fill="#000" rx="21" ry="36.5" transform="rotate(14.26 596 369.25)"/><path stroke="#000" stroke-width="8" d="M210 685.75c-4 82-170 184-206 406m802-406c4 82 170 184 206 406m-802-406c-4 82-170 184-206 406"/><path stroke="#000" stroke-width="8" d="M198 727.75s130 118 316 122 306-104 306-104"/><path stroke="#000" stroke-linecap="round" stroke-width="8" d="M178 793.75c94.6 30 286.21 206 286.21 206l55.79-150m344-56c-94.6 30-286.21 206-286.21 206l-55.79-150"/><path fill="#000" d="M142 577.75l56-7s0 25-36 40-36 40-36 40l-34-35 5-20 12-12 33-6z"/></svg>