<svg xmlns="http://www.w3.org/2000/svg" fill="none" viewBox="0 0 316 148">
  <path stroke="#000" stroke-linejoin="round" stroke-width="1.5" d="m64.9853 100.619 9.0623-8.7618-5.9047-5.9048-6.2106 6.54m-5.5527 16.7326-9.4896 9.489-5.6042-5.604 7.2693-6.858"/>
  <path fill="#CCED00" stroke="#000" stroke-linejoin="round" stroke-width="1.5" d="m83.4441 89.4477-2.30604492 2.30604492L68.24622567 78.8619155l2.30604492-2.30604492z"/>
  <path stroke="#000" stroke-linejoin="round" stroke-width="1.5" d="M82.1742 88.927c2.3478-3.1056 2.1062-7.5454-.7248-10.3764-2.831-2.8311-7.2709-3.0726-10.3765-.7248m9.5445 12.658c-1.939 1.4659-4.3774 2.0076-6.6403 1.4546m-4.4609-12.5559c-1.4659 1.939-2.0076 4.3774-1.4547 6.6404"/>
  <rect width="4.16667" height="6.56288" x="54.7564" y="107.16" stroke="#000" stroke-linejoin="round" stroke-width="1.5" rx="2.08333" transform="rotate(-45 54.7564 107.16)"/>
  <rect width="4.16667" height="6.56288" x="57.3258" y="104.336" stroke="#000" stroke-linejoin="round" stroke-width="1.5" rx="2.08333" transform="rotate(-45 57.3258 104.336)"/>
  <rect width="4.16667" height="6.56288" x="60.0222" y="101.64" stroke="#000" stroke-linejoin="round" stroke-width="1.5" rx="2.08333" transform="rotate(-45 60.0222 101.64)"/>
  <path stroke="#000" stroke-linejoin="round" stroke-width="1.5" d="M57.8571 92.4404c-.0019 0-.0039 0-.0059.0001h-.0007c-.0556.0005-.111.0071-.1651.0199l-9.6296 2.2658H39c-.4142 0-.75.3357-.75.75v10.2858c0 .199.079.39.2197.53.1406.141.3314.22.5303.22h9.3333c.1964 0 .3849-.077.5251-.215l9.4955-9.3089h4.2651c1.2558 0 2.2739-1.0181 2.2739-2.2738 0-1.2558-1.0181-2.2739-2.2739-2.2739h-4.7619Z"/>
  <ellipse cx="3.56538" cy="4.45673" fill="#fff" rx="3.56538" ry="4.45673" transform="matrix(-1 0 0 1 116.122 54.869)"/>
  <circle cx="1.5" cy="1.5" r="1.5" fill="#000" transform="matrix(-1 0 0 1 113 58)"/>
  <ellipse cx="3.56538" cy="4.45673" fill="#fff" rx="3.56538" ry="4.45673" transform="matrix(-1 0 0 1 105.425 54.869)"/>
  <circle cx="1.5" cy="1.5" r="1.5" fill="#000" transform="matrix(-1 0 0 1 102 58)"/>
  <path stroke="#000" stroke-linecap="round" stroke-linejoin="round" stroke-width="1.5" d="M104.534 48.1841c-9.3591-12.479-19.1639-19.3422-20.9466-18.2726-1.7826 1.0696 6.6851 11.1416 12.0332 25.8488-9.2244 1.7405-23.6207 3.1197-23.6207 4.9024 0 8.9133 28.9691 8.0221 37.8821 8.0223"/>
  <path fill="#000" d="M72.4454 60.6628c.4457-.8914 3.5653-1.7827 5.7938-1.7827.4456 2.2283-.8915 4.4567-2.2285 6.2394-2.2283-.8914-4.387-2.8132-3.5653-4.4567Z"/>
  <path fill="#000" d="M78.2392 58.8801v-.75c.3575 0 .6653.2523.7354.6029l-.7354.1471Zm-5.7938 1.7827-.6708-.3355.6708.3355Zm3.5653 4.4567.6001.45-.3449.4598-.5337-.2135.2785-.6963Zm2.2285-5.4894c-1.0296 0-2.2935.2085-3.3499.5254-.5272.1582-.978.3361-1.3098.5138-.1657.0887-.2873.1699-.3699.2383-.0872.0724-.101.1059-.0933.0906l-1.3417-.6709c.2226-.445.6858-.7602 1.0966-.9802.4481-.2401 1-.4522 1.5871-.6283 1.1719-.3516 2.582-.5887 3.7809-.5887v1.5Zm-5.1229 1.3681c-.2035.4069-.1126.9623.5262 1.6741.6207.6917 1.6117 1.3368 2.6468 1.7508l-.5571 1.3927c-1.1933-.4773-2.3958-1.2388-3.2061-2.1417-.7923-.8828-1.3698-2.1101-.7515-3.3468l1.3417.6709Zm5.8583-2.2652c.2617 1.3086-.0081 2.5805-.49 3.725-.4808 1.142-1.1918 2.202-1.8738 3.1115l-1.2001-.9c.6549-.8733 1.281-1.8187 1.6915-2.7936.4095-.9725.5855-1.929.4015-2.8488l1.4709-.2941Z"/>
  <path stroke="#000" stroke-linecap="round" stroke-linejoin="round" stroke-width="1.5" d="M129.492 90.7842c-3.855-10.1842-4.011-25.6648-3.12-38.5893 1.219-9.0504 4.903-22.7294 3.12-23.175-2.228-.557-8.914 10.6962-12.925 19.6096-2.674-1.337-5.793-2.2284-7.13-2.2284.174.5222.271.8149.445 1.3371h-2.087"/>
  <path stroke="#000" stroke-linecap="round" stroke-linejoin="round" stroke-width="1.5" d="M93.7263 76.5263c13.5787 10.8632 20.3687 8.8263 32.5897 0"/>
  <path stroke="#000" stroke-linecap="round" stroke-linejoin="round" stroke-width="1.5" d="M94.7293 68.6849C93.7263 81.279 91.8742 79.4579 87.8005 91"/>
  <path stroke="#000" stroke-linejoin="round" stroke-width="1.5" d="m197.985 100.619 9.063-8.7618-5.905-5.9048-6.211 6.54m-5.552 16.7326-9.49 9.489-5.604-5.604 7.269-6.858"/>
  <path fill="#CCED00" stroke="#000" stroke-linejoin="round" stroke-width="1.5" d="m216.444 89.4477-2.30604492 2.30604492-12.89182941-12.89182941 2.30604492-2.30604492z"/>
  <path stroke="#000" stroke-linejoin="round" stroke-width="1.5" d="M215.174 88.927c2.348-3.1056 2.106-7.5454-.725-10.3764-2.831-2.8311-7.27-3.0726-10.376-.7248m9.544 12.658c-1.939 1.4659-4.377 2.0076-6.64 1.4546m-4.461-12.5559c-1.466 1.939-2.007 4.3774-1.454 6.6404"/>
  <rect width="4.16667" height="6.56288" x="187.756" y="107.16" stroke="#000" stroke-linejoin="round" stroke-width="1.5" rx="2.08333" transform="rotate(-45 187.756 107.16)"/>
  <rect width="4.16667" height="6.56288" x="190.326" y="104.336" stroke="#000" stroke-linejoin="round" stroke-width="1.5" rx="2.08333" transform="rotate(-45 190.326 104.336)"/>
  <rect width="4.16667" height="6.56288" x="193.022" y="101.64" stroke="#000" stroke-linejoin="round" stroke-width="1.5" rx="2.08333" transform="rotate(-45 193.022 101.64)"/>
  <path stroke="#000" stroke-linejoin="round" stroke-width="1.5" d="M190.857 92.4404c-.002 0-.004 0-.006.0001h-.001c-.055.0005-.11.0071-.165.0199l-9.629 2.2658H172c-.414 0-.75.3357-.75.75v10.2858c0 .199.079.39.22.53.14.141.331.22.53.22h9.333c.197 0 .385-.077.525-.215l9.496-9.3089h4.265c1.256 0 2.274-1.0181 2.274-2.2738 0-1.2558-1.018-2.2739-2.274-2.2739h-4.762Z"/>
  <circle cx="4" cy="4" r="4" fill="#fff" transform="matrix(-1 0 0 1 250 56)"/>
  <circle cx="3.5" cy="3.5" r="3.5" fill="#000" transform="matrix(-1 0 0 1 249 57)"/>
  <circle cx="4" cy="4" r="4" fill="#fff" transform="matrix(-1 0 0 1 239 56)"/>
  <circle cx="3.5" cy="3.5" r="3.5" fill="#000" transform="matrix(-1 0 0 1 238 57)"/>
  <path stroke="#000" stroke-linecap="round" stroke-linejoin="round" stroke-width="1.5" d="M237.534 48.184C228.175 35.705 217.283 34.4304 215.5 35.5c-1.783 1.0696 7.773 5.5531 13.121 20.2603C219.396 57.5008 209 60.2173 209 62c0 8.9133 24.969 6.6848 33.882 6.685"/>
  <path fill="#000" d="M210.178 61.7827c.446-.8914 3.594-2.2827 5.822-2.2827.446 2.2284-.919 4.9567-2.256 6.7394-2.229-.8913-4.387-2.8131-3.566-4.4567Z"/>
  <path fill="#000" d="M216 59.5v-.75c.358 0 .665.2524.735.6029L216 59.5Zm-5.822 2.2827-.67-.3354.67.3354Zm3.566 4.4567.6.45-.345.4599-.534-.2135.279-.6964ZM216 60.25c-.983 0-2.227.3136-3.295.7511-.529.2165-.989.4533-1.333.6773-.172.112-.304.2138-.397.3003-.099.0919-.126.1403-.126.1394l-1.341-.6708c.207-.4144.638-.7601 1.045-1.0257.442-.2876.991-.5658 1.583-.8085 1.175-.4811 2.619-.8631 3.864-.8631v1.5Zm-5.151 1.8681c-.203.4069-.112.9623.526 1.6741.621.6917 1.612 1.3368 2.647 1.7509l-.557 1.3927c-1.193-.4774-2.396-1.2388-3.206-2.1417-.792-.8829-1.37-2.1102-.751-3.3468l1.341.6708Zm5.886-2.7652c.262 1.3074-.015 2.6998-.494 3.9519-.483 1.2613-1.196 2.4497-1.897 3.3846l-1.2-.9c.635-.8478 1.273-1.9149 1.696-3.0205.426-1.1149.609-2.2009.425-3.1218l1.47-.2942Z"/>
  <path stroke="#000" stroke-linecap="round" stroke-linejoin="round" stroke-width="1.5" d="M262.492 90.7842c-3.855-10.1842-4.011-25.6648-3.12-38.5893.672-4.9892 2.787-10.8849 3.628-15.6949.685-3.9154-1.5 3-4 2-2.076-.8305.449-7.436-1.803-4-2.582 3.9398-5.487 9.3684-7.63 14.1295-2.674-1.337-5.793-2.2284-7.13-2.2284.174.5222.271.8149.445 1.3371h-2.087"/>
  <path stroke="#000" stroke-width="1.5" d="M258 33.5c1.5-1 5.5 1.5 5 2"/>
  <path stroke="#000" stroke-linecap="round" stroke-linejoin="round" stroke-width="1.5" d="M226.726 76.5263c13.579 10.8632 20.369 8.8263 32.59 0M227.5 69c-1.003 12.5941-2.626 10.4579-6.699 22"/>
  <circle cx="1.5" cy="1.5" r="1.5" fill="#fff" transform="matrix(-1 0 0 1 235 59)"/>
  <circle cx=".5" cy=".5" r=".5" fill="#fff" transform="matrix(-1 0 0 1 236 62)"/>
  <circle cx=".5" cy=".5" r=".5" fill="#fff" transform="matrix(-1 0 0 1 247 62)"/>
  <circle cx="1.5" cy="1.5" r="1.5" fill="#fff" transform="matrix(-1 0 0 1 246 59)"/>
</svg>
