<svg xmlns="http://www.w3.org/2000/svg" viewBox="0 0 490 154"><path d="M71.56 153.82l.63-32.06h-7.67V26.62H21.91l-1.75 36.92q-.21 5.84-.64 11.67-.33 5.57-.91 11.11T17.06 97a75.19 75.19 0 01-2.25 9.28 40.71 40.71 0 01-4.08 9.56 17.55 17.55 0 01-5.48 5.91H.82l1 32.13h7.23V129h54.84v24.82h7.67zm-43-90.28l1.2-29.67H56.3v87.89H16.71a34 34 0 004.29-8 81.81 81.81 0 003.16-10.4q1.32-5.55 2.11-11.18.84-5.93 1.34-11.89.42-4.71.63-9t.35-7.73zm52.54 26.3v2.25a46.28 46.28 0 002.32 14.76A36.74 36.74 0 0090.13 119a31.72 31.72 0 0010.68 8.36 32.82 32.82 0 0014.35 3A31.53 31.53 0 00140 119a38.14 38.14 0 006.68-12.17A46.56 46.56 0 00149 92.09v-2.25a46.58 46.58 0 00-2.32-14.77A37 37 0 00140 62.91a31 31 0 00-10.69-8.3A31.81 31.81 0 00115 51.52a31.86 31.86 0 00-14.28 3.09 32.31 32.31 0 00-10.61 8.3 37.43 37.43 0 00-6.68 12.23 46.09 46.09 0 00-2.32 14.7zm8.36 2.25v-2.25a43.74 43.74 0 011.69-11.61 31.39 31.39 0 014.92-9.91 24.71 24.71 0 018-7 22.52 22.52 0 0111-2.6 22.16 22.16 0 0110.9 2.6 24.36 24.36 0 018 7 31 31 0 014.92 9.91 41.93 41.93 0 011.76 11.61v2.25a42 42 0 01-1.76 11.67 30.8 30.8 0 01-4.85 10 24.89 24.89 0 01-7.94 6.89 22.13 22.13 0 01-10.9 2.6 22.68 22.68 0 01-11-2.6 24.67 24.67 0 01-8-6.89 32.2 32.2 0 01-4.92-10 43.94 43.94 0 01-1.79-11.67zm97 2.11L220 129h11.25l-37.48-39.16 33.83-36.92h-10.83L186.25 86.6h-13.64V52.92h-8.51V129h8.51V94.19h13.85zm107 34.8h9v-.91a73.22 73.22 0 01-1.69-7.32A55.67 55.67 0 01300 113V76.27a25.1 25.1 0 00-2.32-10.83 21.83 21.83 0 00-6.18-7.74 27.18 27.18 0 00-9.21-4.64A40.12 40.12 0 00271 51.52a37.71 37.71 0 00-11.4 1.68 32.09 32.09 0 00-9.29 4.64 24.29 24.29 0 00-6.39 7.1 19.09 19.09 0 00-2.61 8.93l8.44.07a12.83 12.83 0 011.9-6.39 15.8 15.8 0 014.64-4.86 21.61 21.61 0 016.54-3 28.65 28.65 0 017.81-1.05 27.45 27.45 0 018.22 1.19 19.63 19.63 0 016.68 3.31A15.34 15.34 0 01290 68.6a17.31 17.31 0 011.69 7.52v8.58h-16.55a67.11 67.11 0 00-13.58 1.3 36.12 36.12 0 00-11.39 4.15 23.11 23.11 0 00-7.8 7.52 20.43 20.43 0 00-2.88 11.11 19.7 19.7 0 002 8.86 20.4 20.4 0 005.34 6.82 26.32 26.32 0 008 4.36 31.23 31.23 0 009.92 1.55 34.92 34.92 0 008.08-.92 33.77 33.77 0 007.37-2.45 32.72 32.72 0 006.4-4 30.11 30.11 0 005.13-5.27c.09 2 .26 3.91.49 5.84a35.8 35.8 0 001.2 5.41zm-27.71-6.12a22.45 22.45 0 01-7-1 18.1 18.1 0 01-5.62-3 13.7 13.7 0 01-3.87-4.65 14.2 14.2 0 01-1.34-6.18 12.64 12.64 0 011.83-7.17 16.14 16.14 0 015.13-5.07 25.77 25.77 0 019.5-3.44 69.42 69.42 0 0111.95-1.13h15.33v16.67a25.07 25.07 0 01-4.22 6.18 26.78 26.78 0 01-6 4.72 29.8 29.8 0 01-7.38 3 32.87 32.87 0 01-8.37 1zM320 46.44l.8-3.71a2.59 2.59 0 01-1.92-.61 4.22 4.22 0 01-1.15-1.68 9.68 9.68 0 01-.59-2.37 24.21 24.21 0 01-.14-2.55V31.7a9 9 0 00-1.36-4.93 8.46 8.46 0 00-4.26-3.25 8.44 8.44 0 004.24-3.29 8.94 8.94 0 001.38-4.94v-3.82c0-.85 0-1.7.05-2.56a8.86 8.86 0 01.42-2.36 3.55 3.55 0 011.12-1.69 3.17 3.17 0 012.21-.61L320 .57a8.24 8.24 0 00-3.91.87 7.73 7.73 0 00-2.65 2.22 10.16 10.16 0 00-1.78 3.71 15.72 15.72 0 00-.57 4.1v3.82c0 2.11-.48 3.62-1.45 4.52a6.27 6.27 0 01-4.43 1.36v4.69a6.27 6.27 0 014.43 1.36c1 .9 1.45 2.4 1.45 4.47v3.82a15.11 15.11 0 00.5 3.78 11.2 11.2 0 001.64 3.56 8.6 8.6 0 002.77 2.56 7.72 7.72 0 004 1.03zM334.65 38h12.45a18.79 18.79 0 005.06-.63 10.78 10.78 0 003.82-1.9 8.43 8.43 0 002.41-3.14 10.37 10.37 0 00.85-4.34 8.85 8.85 0 00-.35-2.48 7.66 7.66 0 00-1-2.25 7.33 7.33 0 00-1.69-1.69 8.49 8.49 0 00-2.68-1.2 7.33 7.33 0 001.58-.8 7.88 7.88 0 001.29-1 6.64 6.64 0 001.54-2.39 8.33 8.33 0 00.56-2.93 9 9 0 00-.89-4.15 7.64 7.64 0 00-2.48-2.9 11.15 11.15 0 00-3.92-1.71 20.77 20.77 0 00-5.06-.57h-11.49V38zm6.61-15h6.14a7.63 7.63 0 012.39.38 4 4 0 011.64 1 3.59 3.59 0 01.92 1.54 6.61 6.61 0 01.3 2.06 4.8 4.8 0 01-.4 2 3.92 3.92 0 01-1.12 1.52 5 5 0 01-1.71.89 7.42 7.42 0 01-2.3.33h-5.86zm0-4.76v-9h4.88a11 11 0 012.76.35 4 4 0 011.9 1.06 3.14 3.14 0 01.8 1.29 5.4 5.4 0 01.28 1.8 4.45 4.45 0 01-.33 1.76 3.43 3.43 0 01-.89 1.31 4.42 4.42 0 01-1.85 1 10 10 0 01-2.65.35zm48.07 4.86v-5.26h-14v-8.6h16.31V3.87H368.7V38h23v-5.32h-16.39v-9.63zM427 9.24V3.87h-27.48v5.37h10.38V38h6.61V9.24zm25.33 21.63l2 7.13h6.93l-11-34.13h-6L433.17 38h6.94l2-7.13zm-8.62-5.6l3.59-12.56 3.49 12.56zm30.18 17.46l.8 3.71a7.7 7.7 0 004-1 8.08 8.08 0 002.76-2.6 11.55 11.55 0 001.6-3.52 14.3 14.3 0 00.53-3.79V31.7a10.48 10.48 0 01.17-2 5.43 5.43 0 01.54-1.55 3.83 3.83 0 011.94-1.76 8.22 8.22 0 013.24-.56v-4.66a9 9 0 01-3-.44 4 4 0 01-1.9-1.41 5 5 0 01-.77-1.71 10.09 10.09 0 01-.24-2.32v-3.82a15.86 15.86 0 00-.44-3.68 10.2 10.2 0 00-1.45-3.47 8.25 8.25 0 00-2.79-2.72 8 8 0 00-4.22-1l-.8 3.68a3.11 3.11 0 012.2.61 3.5 3.5 0 011.13 1.69 8.49 8.49 0 01.4 2.36c.05.86.07 1.71.07 2.56v3.82a10.65 10.65 0 00.44 3.07 8.12 8.12 0 002.89 4.05 8.89 8.89 0 002 1.13 9.47 9.47 0 00-2.34 1.43 7.51 7.51 0 00-1.65 1.84 8.57 8.57 0 00-1 2.28 10.62 10.62 0 00-.3 2.57v3.82a20.13 20.13 0 01-.17 2.56 9.66 9.66 0 01-.58 2.37 4.16 4.16 0 01-1.17 1.68 2.54 2.54 0 01-1.88.61z"/></svg>