<svg xmlns="http://www.w3.org/2000/svg" fill="none" viewBox="0 0 316 148">
  <path fill="#000" d="M284.612 75.119c1.896 1.82 4.045 3.881 8.185 3.881 1.203 0 1.203-1.713 0-1.713-3.455 0-5.179-1.654-7.005-3.406-1.896-1.82-4.045-3.881-8.184-3.881-4.14 0-6.289 2.062-8.184 3.881l-.001.001c-1.826 1.751-3.549 3.405-7.004 3.405-3.455 0-5.179-1.655-7.004-3.406-1.896-1.82-4.044-3.881-8.184-3.881s-6.288 2.062-8.184 3.881l-.001.001c-1.825 1.751-3.549 3.405-7.004 3.405-3.455 0-5.179-1.655-7.004-3.406-1.896-1.82-4.045-3.881-8.184-3.881a.855.855 0 0 0-.854.857c0 .472.382.856.854.856 3.454 0 5.179 1.654 7.004 3.406 1.897 1.82 4.045 3.881 8.184 3.881 4.14 0 6.289-2.062 8.185-3.881 1.825-1.752 3.55-3.406 7.004-3.406 3.455 0 5.179 1.655 7.004 3.406 1.896 1.82 4.045 3.881 8.184 3.881 4.14 0 6.288-2.062 8.184-3.881 1.826-1.752 3.55-3.406 7.005-3.406 3.454 0 5.179 1.654 7.004 3.406ZM91.612 75.119C93.508 76.939 95.657 79 99.796 79c1.204 0 1.204-1.713 0-1.713-3.454 0-5.178-1.654-7.004-3.406C90.896 72.061 88.747 70 84.608 70c-4.14 0-6.289 2.062-8.184 3.881l-.002.001c-1.825 1.751-3.548 3.405-7.003 3.405s-5.18-1.655-7.004-3.406C60.519 72.061 58.37 70 54.23 70s-6.288 2.062-8.184 3.881l-.001.001c-1.825 1.751-3.55 3.405-7.004 3.405-3.455 0-5.179-1.655-7.004-3.406C30.142 72.061 27.993 70 23.854 70a.855.855 0 0 0-.854.857c0 .472.382.856.854.856 3.454 0 5.178 1.654 7.004 3.406C32.754 76.939 34.903 79 39.042 79c4.14 0 6.289-2.062 8.184-3.881 1.826-1.752 3.55-3.406 7.005-3.406s5.179 1.655 7.004 3.406C63.131 76.939 65.28 79 69.419 79c4.14 0 6.288-2.062 8.184-3.881 1.826-1.752 3.55-3.406 7.005-3.406 3.454 0 5.179 1.654 7.004 3.406Z"/>
  <ellipse cx="2.626" cy="3.282" fill="#fff" rx="2.626" ry="3.282" transform="matrix(-1 0 0 1 165.332 53.05)"/>
  <ellipse cx=".985" cy="1.969" fill="#000" rx=".985" ry="1.969" transform="matrix(-1 0 0 1 162.706 54.364)"/>
  <ellipse cx="2.626" cy="3.282" fill="#fff" rx="2.626" ry="3.282" transform="matrix(-1 0 0 1 157.455 53.05)"/>
  <ellipse cx=".985" cy="1.969" fill="#000" rx=".985" ry="1.969" transform="matrix(-1 0 0 1 154.829 54.364)"/>
  <path stroke="#000" stroke-linecap="round" stroke-linejoin="round" stroke-width="1.5" d="M156.798 48.128c-6.892-9.19-14.113-14.244-15.426-13.457-1.312.788 4.924 8.205 8.862 19.036-6.793 1.282-17.395 2.298-17.395 3.61 0 6.565 21.334 5.908 27.898 5.908"/>
  <path fill="#000" d="M133.167 57.318c.328-.657 2.626-1.313 4.267-1.313.328 1.64-.657 3.282-1.641 4.595-1.641-.657-3.231-2.072-2.626-3.282Z"/>
  <path fill="#000" d="M137.434 56.005v-.5a.5.5 0 0 1 .49.402l-.49.098Zm-4.267 1.313.447.223-.447-.223Zm2.626 3.282.4.3-.23.306-.356-.142.186-.464Zm1.641-4.095c-.764 0-1.7.154-2.482.389-.391.117-.726.25-.975.382a1.759 1.759 0 0 0-.281.182c-.067.056-.083.086-.082.083l-.894-.447c.156-.312.484-.538.785-.7.326-.174.729-.329 1.159-.458.859-.258 1.893-.431 2.77-.431v1Zm-3.82 1.036c-.164.329-.08.761.396 1.291.463.517 1.201.996 1.968 1.303l-.371.929c-.873-.35-1.752-.906-2.342-1.564-.578-.644-.986-1.524-.545-2.406l.894.447Zm4.31-1.634c.19.95-.005 1.875-.358 2.712-.351.836-.872 1.612-1.373 2.28l-.8-.6c.483-.644.947-1.344 1.252-2.068.304-.722.437-1.437.298-2.128l.981-.196Z"/>
  <path stroke="#000" stroke-linecap="round" stroke-linejoin="round" stroke-width="1.5" d="M175.178 79.5c-2.839-7.5-2.954-18.9-2.297-28.419.897-6.665 3.61-16.738 2.297-17.066-1.641-.41-6.564 7.877-9.518 14.44-1.969-.984-4.267-1.64-5.251-1.64l.328.984H159.2"/>
  <path stroke="#000" stroke-linecap="round" stroke-linejoin="round" stroke-width="1.5" d="M148.839 69c10 8 15 6.5 24 0"/>
  <path stroke="#000" stroke-linecap="round" stroke-linejoin="round" stroke-width="1.5" d="M149.578 63.225c-.739 9.275-2.739 9.775-5.739 18.275"/>
  <path fill="#CCED00" stroke="#000" stroke-linecap="round" stroke-linejoin="round" stroke-width="1.5" d="M178.339 44.5c0 1.5-4 8 0 8s0-6.5 0-8Z"/>
  <path stroke="#000" stroke-linecap="round" stroke-linejoin="round" stroke-width="1.5" d="M119.339 73c-2-5 5.5-6.5 5.5 0 0 12 2.5 26.5 18 26.5h34.5c14 0 14.522-15.266 13.5-26.5-.5-5.5 7.5-3.5 5 1"/>
  <path stroke="#000" stroke-linecap="round" stroke-linejoin="round" stroke-width="1.5" d="M124.839 74.5c12 14.5 34.5 11 44.5 10m5.5-1 1.5-.5m3-1c5.5-2 8-4 11.5-7.5"/>
  <rect width="6.295" height="9.636" x="147.09" y="104.174" stroke="#000" stroke-width="1.5" rx="1.25" transform="rotate(-10.816 147.09 104.174)"/>
  <rect width="6.295" height="9.636" x="159.09" y="104.174" stroke="#000" stroke-width="1.5" rx="1.25" transform="rotate(-10.816 159.09 104.174)"/>
  <rect width="6.295" height="9.636" x="171.09" y="104.174" stroke="#000" stroke-width="1.5" rx="1.25" transform="rotate(-10.816 171.09 104.174)"/>
  <circle cx="107.5" cy="36.5" r="8.5" fill="#CCED00"/>
</svg>
