<svg xmlns="http://www.w3.org/2000/svg" fill="none" viewBox="0 0 316 224">
  <path fill="#FFF" stroke="#000" stroke-width="1.5" d="M150.764 87.4058c.525 2.976.101 5.7987-.971 7.9508-1.073 2.1523-2.765 3.5888-4.782 3.9445-2.018.3558-4.099-.4154-5.843-2.0711-1.744-1.6555-3.107-4.1631-3.632-7.1391-.525-2.976-.101-5.7987.971-7.9508 1.073-2.1523 2.765-3.5888 4.782-3.9445 2.018-.3558 4.099.4155 5.843 2.0711 1.744 1.6555 3.107 4.1631 3.632 7.1391ZM182.077 89.1067c-.525 2.976-1.888 5.4836-3.632 7.1391-1.744 1.6557-3.825 2.4269-5.843 2.0711-2.017-.3557-3.709-1.7922-4.782-3.9445-1.072-2.1521-1.496-4.9748-.971-7.9508s1.888-5.4836 3.632-7.1391c1.744-1.6556 3.825-2.4269 5.843-2.0711 2.017.3557 3.709 1.7922 4.782 3.9445 1.072 2.1521 1.496 4.9748.971 7.9508Z"/>
  <ellipse cx="144.22" cy="89.9814" fill="#000" rx="4.5075" ry="6.2604" transform="rotate(-10.19 144.22 89.9814)"/>
  <ellipse cx="173.273" cy="88.9194" fill="#000" rx="4.6327" ry="6.2604" transform="rotate(7.04 173.273 88.9194)"/>
  <path stroke="#000" stroke-linecap="round" stroke-linejoin="round" stroke-width="1.5" d="M158.807 64.5h5.082l-1.085-3.2677c3.256 0 10.853 2.4743 17.364 5.742 9.768-21.7844 26.047-49.287 31.473-47.9257 4.342 1.0891-4.63 34.5204-7.596 56.6395-.364 5.292-.656 10.2594-.846 15.8119m-47.892-27c-4.5 0-10.5-.5-17.862 2.4743-9.768-21.7844-26.047-49.287-31.473-47.9257-4.341 1.0891 4.63 34.5204 7.597 56.6395.353 5.1331.638 10.4312.828 15.8119"/>
  <path fill="#CCED00" fill-rule="evenodd" d="M84.9473 91.6502H232.771v25.8718a13.2586 13.2586 0 0 0-3.457-.072l.001.009c-.179.014-.358.031-.538.051-6.48.72-11.32 5.013-10.812 9.587.251 2.259 1.761 4.164 4.005 5.427-3.662 1.792-5.964 4.878-5.606 8.104.359 3.226 3.283 5.731 7.249 6.674-1.912 1.725-2.966 3.916-2.715 6.175.489 4.389 5.725 7.443 11.873 7.046v37.727H84.9473v-39.836c5.7065.221 10.5132-2.574 11.1153-6.707.3277-2.25-.6512-4.475-2.5033-6.264 3.9954-.808 7.0027-3.212 7.4707-6.424.468-3.212-1.7287-6.374-5.3274-8.289 2.2855-1.186 3.8584-3.04 4.1861-5.289.6633-4.554-4.0291-9.008-10.4809-9.948a16.7316 16.7316 0 0 0-.5356-.069l.0013-.009c-1.2969-.188-2.6145-.182-3.9262.018V91.6502Z" clip-rule="evenodd"/>
  <path stroke="#000" stroke-linecap="square" stroke-miterlimit="10" stroke-width="1.5" d="M232.771 118V91.6502H84.9473V116m147.8237 44v38.25H84.9473v-40.443M172.15 127.634h-26.546v25.332h26.546v-25.332Z"/>
  <path stroke="#000" stroke-width="1.5" d="M100 140.25h45M172 140.25h45M224.115 147.859l1.06-.956-1.389-.331c-3.802-.904-6.367-3.241-6.676-6.027-.31-2.786 1.679-5.629 5.189-7.347l1.282-.627-1.244-.7c-2.096-1.18-3.409-2.901-3.626-4.857-.221-1.98.708-3.973 2.537-5.595 1.828-1.62 4.508-2.819 7.612-3.164.172-.019.344-.035.514-.049l.772-.061-.001-.01c1.294-.064 2.6.074 3.889.414l.007.002.008.001c1.311.316 2.487.81 3.473 1.439l.014.009.015.008c1.328.765 2.589 1.752 3.746 2.94 1.708 1.754 3.155 3.909 4.252 6.348 1.097 2.438 1.82 5.106 2.125 7.85.305 2.745.186 5.507-.349 8.126-.534 2.62-1.472 5.041-2.753 7.127-.868 1.413-1.881 2.652-3.008 3.689l-.012.012-.012.012c-.824.831-1.865 1.572-3.077 2.169l-.007.003-.007.004c-1.182.613-2.424 1.035-3.701 1.256l-.001-.01-.765.11c-.17.024-.341.046-.513.065-3.104.345-5.982-.235-8.121-1.415-2.141-1.18-3.484-2.92-3.704-4.9-.218-1.956.685-3.924 2.471-5.535ZM95.357 130.064l-1.2666.658 1.2599.67c3.4504 1.836 5.3417 4.745 4.9377 7.519-.4044 2.773-3.0468 5.022-6.8775 5.797l-1.3988.283 1.0265.992c1.7301 1.671 2.5659 3.668 2.2823 5.616-.2872 1.971-1.6887 3.664-3.8685 4.771-2.1777 1.107-5.0735 1.589-8.1645 1.139a16.5515 16.5515 0 0 1-.5096-.083l-.7622-.135-.0015.009c-1.2685-.264-2.4965-.728-3.6575-1.381l-.0069-.004-.0069-.004c-1.1891-.637-2.2033-1.412-2.998-2.27l-.0116-.012-.0121-.012c-1.0915-1.075-2.0621-2.349-2.8818-3.791-1.2097-2.128-2.0651-4.579-2.5103-7.215-.4453-2.637-.4707-5.401-.0727-8.133.3981-2.733 1.211-5.375 2.3898-7.774 1.1789-2.4 2.698-4.505 4.4645-6.2 1.1969-1.148 2.4901-2.091 3.8428-2.811l.015-.008.0147-.008c1.0068-.596 2.2008-1.05 3.5231-1.321l.0077-.002.0076-.001c1.2988-.295 2.6077-.389 3.8984-.281l-.0015.01.7693.087c.17.019.3407.042.5119.066 3.091.451 5.7288 1.739 7.5004 3.421 1.7734 1.683 2.6335 3.706 2.3464 5.677-.2837 1.947-1.6546 3.623-3.7895 4.731Z"/>
</svg>
