<svg xmlns="http://www.w3.org/2000/svg" fill="none" viewBox="0 0 1016 1093"><path d="M8.1 24.4c-2.51 0-4.42-.76-5.72-2.27C1.1 20.6.47 18.44.47 15.7V1.92c0-.9.4-1.36 1.2-1.36.81 0 1.23.46 1.23 1.36v13.77c0 4.3 1.73 6.44 5.2 6.44 3.54 0 5.3-2.15 5.3-6.44V1.92c0-.9.4-1.36 1.2-1.36.82 0 1.23.46 1.23 1.36v13.77c0 2.75-.65 4.9-1.95 6.44-1.3 1.51-3.23 2.27-5.77 2.27zM26.45 4.5a4.2 4.2 0 00-4.22 4.22 4.2 4.2 0 004.22 4.22 4.2 4.2 0 004.21-4.22 4.2 4.2 0 00-4.21-4.22zm18.78 13.1A12.81 12.81 0 0048 20.5c.85.56 1.5.84 1.95.84a6.11 6.11 0 002.3-.4v2.78c-.28.16-.68.28-1.18.36a5.44 5.44 0 01-3.26-.2 7.1 7.1 0 01-2.2-1.27c-.8-.66-1.7-1.63-2.7-2.9-1.43 1.85-2.7 3.07-3.82 3.65a6.4 6.4 0 01-2.99.88 7.14 7.14 0 01-2.66-.52v-2.78l.91.24c.45.1.87.16 1.24.16a4 4 0 002.15-.8 13.8 13.8 0 002.78-2.95 25.6 25.6 0 01-3.38-4.37 8.64 8.64 0 01-1.27-4.38 6.49 6.49 0 013.3-5.77 7.64 7.64 0 013.74-.87c1.43 0 2.66.29 3.7.87a6.49 6.49 0 013.3 5.77c0 1-.22 2.03-.68 3.06-.45 1.01-1.03 2-1.75 2.95-.69.95-1.44 1.87-2.26 2.74zM59.26 4.5a4.2 4.2 0 00-4.22 4.22 4.2 4.2 0 004.22 4.22 4.2 4.2 0 004.21-4.22 4.2 4.2 0 00-4.21-4.22zm18.26 19.9c-2.52 0-4.43-.76-5.73-2.27-1.27-1.54-1.9-3.69-1.9-6.44V1.92c0-.9.39-1.36 1.18-1.36.83 0 1.24.46 1.24 1.36v13.77c0 4.3 1.74 6.44 5.21 6.44 3.53 0 5.3-2.15 5.3-6.44V1.92c0-.9.39-1.36 1.19-1.36.82 0 1.23.46 1.23 1.36v13.77c0 2.75-.65 4.9-1.95 6.44-1.3 1.51-3.22 2.27-5.77 2.27z"></path></svg>
