<svg xmlns="http://www.w3.org/2000/svg" fill="none" viewBox="0 0 316 224">
  <path fill="#CCED00" d="M178 100c-7.5.5-13 .5-21 0-2 3.5-2.5 13.5-2 17 9.5 1 15.5 1 25 0 .5-3.5 0-13.5-2-17ZM205.5 109.5c.5-8-1-11-5-15.5 6.5-4 8-5 12.5-10 4.5-1 7.5 4.5 6 13-4 6.5-6.5 8.5-13.5 12.5ZM128.89 109.5c-.5-8 1-11 5-15.5-6.5-4-8-5-12.5-10-4.5-1-7.5 4.5-6 13 4 6.5 6.5 8.5 13.5 12.5Z"/>
  <path stroke="#000" stroke-linecap="round" stroke-linejoin="round" stroke-width="1.5" d="M216.25 74.5c0 6.907-5.242 13.334-14.102 18.077-8.829 4.727-21.078 7.673-34.648 7.673-13.57 0-25.819-2.946-34.648-7.673-8.86-4.743-14.102-11.17-14.102-18.077 0-6.907 5.242-13.334 14.102-18.077 8.829-4.727 21.078-7.673 34.648-7.673 13.57 0 25.819 2.946 34.648 7.673 8.86 4.743 14.102 11.17 14.102 18.077Z"/>
  <path stroke="#000" stroke-linecap="round" stroke-linejoin="round" stroke-width="1.5" d="m153 170.5-2-13.5c-50 0-79-55.5-32.5-82.5m34.5 96 7-19-2-13.5c-37.5 0-60-32-44-46m39 78.5c-6.5 0-43 1-58-37.5M167.5 100.25c14.636 0 26.5-4.846 26.5-11.75 0-3.043-2.305-5.832-6.137-8M141 88.5c0-5.162 6.633-9.593 16.097-11.5m23.903.741C177.046 76.635 172.43 76 167.5 76c-.673 0-1.34.012-2 .035"/>
  <path stroke="#000" stroke-linecap="round" stroke-linejoin="round" stroke-width="1.5" d="M118.5 75c-3.521 3.8-4.5 9.976-4.5 14.5 0 15.74 23.953 28.5 53.5 28.5S221 105.24 221 89.5c0-4.524-.979-10.7-4.5-14.5"/>
  <path fill="#000" d="M283.235 174.119c1.896 1.819 4.045 3.881 8.184 3.881 1.081 0 1.081-1.713 0-1.713-3.455 0-5.179-1.655-7.004-3.406-1.896-1.819-4.044-3.881-8.184-3.881s-6.288 2.062-8.184 3.881l-.001.001c-1.825 1.751-3.549 3.405-7.004 3.405-3.455 0-5.179-1.655-7.004-3.406-1.896-1.819-4.045-3.881-8.184-3.881a.855.855 0 0 0-.854.857c0 .473.382.856.854.856 3.454 0 5.179 1.654 7.004 3.406 1.897 1.819 4.045 3.881 8.184 3.881 4.14 0 6.289-2.062 8.185-3.881 1.825-1.752 3.55-3.406 7.004-3.406 3.455 0 5.179 1.655 7.004 3.406ZM283.235 154.119c1.896 1.819 4.045 3.881 8.184 3.881 1.081 0 1.081-1.713 0-1.713-3.455 0-5.179-1.655-7.004-3.406-1.896-1.819-4.044-3.881-8.184-3.881s-6.288 2.062-8.184 3.881l-.001.001c-1.825 1.751-3.549 3.405-7.004 3.405-3.455 0-5.179-1.655-7.004-3.406-1.896-1.819-4.045-3.881-8.184-3.881a.855.855 0 0 0-.854.857c0 .473.382.856.854.856 3.454 0 5.179 1.654 7.004 3.406 1.897 1.819 4.045 3.881 8.184 3.881 4.14 0 6.289-2.062 8.185-3.881 1.825-1.752 3.55-3.406 7.004-3.406 3.455 0 5.179 1.655 7.004 3.406Z"/>
  <path fill="#000" d="M192.096 154.119c-1.826-1.752-3.55-3.406-7.004-3.406-1.592 0-1.592-1.713 0-1.713 4.139 0 6.288 2.062 8.184 3.881l.001.001c1.825 1.751 3.549 3.405 7.003 3.405 3.455 0 5.179-1.655 7.005-3.406 1.895-1.819 4.044-3.881 8.183-3.881 4.14 0 6.289 2.062 8.184 3.881l.001.001c1.826 1.751 3.549 3.405 7.004 3.405 3.455 0 5.179-1.655 7.004-3.406 1.896-1.819 4.045-3.881 8.185-3.881.471 0 .853.384.853.857a.854.854 0 0 1-.853.856c-3.455 0-5.179 1.654-7.005 3.406-1.896 1.819-4.045 3.881-8.184 3.881-4.14 0-6.289-2.062-8.184-3.881h-.001c-1.825-1.752-3.549-3.406-7.004-3.406-3.454 0-5.179 1.655-7.004 3.406-1.896 1.819-4.045 3.881-8.184 3.881-4.139 0-6.288-2.062-8.184-3.881ZM32.472 174.119c-1.825-1.752-3.55-3.406-7.004-3.406-.968 0-.968-1.713 0-1.713 4.14 0 6.289 2.062 8.184 3.881l.001.001c1.826 1.751 3.55 3.405 7.004 3.405 3.455 0 5.179-1.655 7.004-3.406 1.896-1.819 4.045-3.881 8.185-3.881a.856.856 0 0 1 0 1.713c-3.455 0-5.18 1.654-7.005 3.406-1.896 1.819-4.045 3.881-8.184 3.881-4.14 0-6.289-2.062-8.184-3.881ZM32.472 154.119c-1.825-1.752-3.55-3.406-7.004-3.406-.968 0-.968-1.713 0-1.713 4.14 0 6.289 2.062 8.184 3.881l.001.001c1.826 1.751 3.55 3.405 7.004 3.405 3.455 0 5.179-1.655 7.004-3.406 1.896-1.819 4.045-3.881 8.185-3.881a.856.856 0 0 1 0 1.713c-3.455 0-5.18 1.654-7.005 3.406-1.896 1.819-4.045 3.881-8.184 3.881-4.14 0-6.289-2.062-8.184-3.881Z"/>
  <path fill="#000" d="M62.73 154.119c-1.825-1.752-3.55-3.406-7.004-3.406-.968 0-.968-1.713 0-1.713 4.14 0 6.288 2.062 8.184 3.881l.001.001c1.825 1.751 3.55 3.405 7.004 3.405 3.455 0 5.179-1.655 7.004-3.406 1.896-1.819 4.045-3.881 8.184-3.881a.856.856 0 0 1 0 1.713c-3.454 0-5.178 1.654-7.004 3.406-1.897 1.819-4.045 3.881-8.184 3.881-4.14 0-6.289-2.062-8.185-3.881ZM192.096 174.119c-1.826-1.752-3.55-3.406-7.004-3.406-1.592 0-1.592-1.713 0-1.713 4.139 0 6.288 2.062 8.184 3.881l.001.001c1.825 1.751 3.549 3.405 7.003 3.405 3.455 0 5.179-1.655 7.005-3.406 1.895-1.819 4.044-3.881 8.183-3.881 4.14 0 6.289 2.062 8.184 3.881l.001.001c1.826 1.751 3.549 3.405 7.004 3.405 3.455 0 5.179-1.655 7.004-3.406 1.896-1.819 4.045-3.881 8.185-3.881.471 0 .853.384.853.857a.854.854 0 0 1-.853.856c-3.455 0-5.179 1.654-7.005 3.406-1.896 1.819-4.045 3.881-8.184 3.881-4.14 0-6.289-2.062-8.184-3.881h-.001c-1.825-1.752-3.549-3.406-7.004-3.406-3.454 0-5.179 1.655-7.004 3.406-1.896 1.819-4.045 3.881-8.184 3.881-4.139 0-6.288-2.062-8.184-3.881ZM62.73 174.119c-1.825-1.752-3.55-3.406-7.004-3.406-.968 0-.968-1.713 0-1.713 4.14 0 6.288 2.062 8.184 3.881l.001.001c1.825 1.751 3.55 3.405 7.004 3.405 3.455 0 5.179-1.655 7.004-3.406 1.896-1.819 4.045-3.881 8.184-3.881a.856.856 0 0 1 0 1.713c-3.454 0-5.178 1.654-7.004 3.406-1.897 1.819-4.045 3.881-8.184 3.881-4.14 0-6.289-2.062-8.185-3.881Z"/>
</svg>
