<?xml version="1.0" encoding="UTF-8"?>
<svg width="69px" height="12px" viewBox="0 0 69 12" version="1.1" xmlns="http://www.w3.org/2000/svg" xmlns:xlink="http://www.w3.org/1999/xlink">
    <title>Group</title>
    <g id="Page-1" stroke="none" stroke-width="1" fill="none" fill-rule="evenodd">
        <g id="Artboard" transform="translate(-476.000000, -557.000000)" fill-rule="nonzero">
            <g id="Group" transform="translate(476.000000, 557.000000)">
                <path d="M0,6 C0,2.68629333 2.68629333,0 6,0 L6,0 C9.31368889,0 12,2.68629333 12,6 L12,6 C12,9.31368889 9.31368889,12 6,12 L6,12 C2.68629333,12 0,9.31368889 0,6 L0,6 Z" id="Path" fill-opacity="0.85" fill="#000000"></path>
                <path d="M6.72724258,2.92771001 L6.09091045,2.92771001 C4.99998882,2.92771001 4.45452801,3.43371401 4.45452801,4.19278051 C4.45452801,5.03614932 4.8181996,5.45783372 5.63636753,5.96386365 L6.27269967,6.38554805 L4.45452801,9 L3,9 L4.7272817,6.63854141 C3.72726866,5.96386365 3.18181717,5.3734882 3.18181717,4.27712603 C3.18181717,2.92771001 4.18182089,2 6.09091045,2 L8,2 L8,9 L6.72724258,9 L6.72724258,2.92771001 Z" id="Path" fill="#FFFFFF"></path>
                <path d="M14,1 L14,9.99410727 L15.5093329,9.99410727 L15.5093329,2.21646733 L18.2036682,2.21646733 L18.2036682,9.99410727 L19.7129579,9.99410727 L19.7129579,1 L14,1 Z M22.3276702,3.48469282 L20.955569,3.48469282 L20.955569,11.8705934 L22.4399468,11.8705934 L22.4399468,9.23059013 C22.8141444,9.81292002 23.3629849,10.1235139 23.9991468,10.1235139 C25.4461135,10.1235139 26.444017,8.91999623 26.444017,6.73291625 C26.444017,4.55880387 25.4710686,3.35528618 24.0740123,3.35528618 C23.3754841,3.35528618 22.8016885,3.69177038 22.4025357,4.32588088 L22.3276702,3.48469282 Z M23.6249492,8.90702864 C22.8390996,8.90702864 22.4399468,8.24707271 22.4399468,6.74588384 C22.4399468,5.23177226 22.8640547,4.57177145 23.6998147,4.57177145 C24.5105762,4.57177145 24.9097289,5.23177226 24.9097289,6.73291625 C24.9097289,8.24707271 24.485621,8.90702864 23.6249492,8.90702864 Z M32.0652852,5.55528887 C32.0652852,3.97647397 31.2918916,3.38117648 29.7202357,3.38117648 C28.734788,3.38117648 27.9614377,3.70469309 27.5123746,3.97647397 L27.5123746,5.25766256 C27.9115273,4.94706867 28.7846984,4.61058447 29.5455928,4.61058447 C30.2565769,4.61058447 30.5809075,4.86939776 30.5809075,5.56821159 L30.5809075,5.93058609 L30.3438984,5.93058609 C28.073671,5.93058609 27.0633115,6.70707082 27.0633115,8.02707244 C27.0633115,9.34702918 27.8367051,10.0847009 28.9842531,10.0847009 C29.8574241,10.0847009 30.231665,9.78702972 30.5185412,9.4764807 L30.5809075,9.4764807 C30.5933634,9.64470036 30.6432737,9.86470063 30.6931841,9.99410727 L32.1401075,9.99410727 C32.0902404,9.46351311 32.0652852,8.93291895 32.0652852,8.40232478 L32.0652852,5.55528887 Z M30.5809075,8.44118267 C30.3938087,8.72588626 30.044523,8.95880925 29.5206376,8.95880925 C28.8969749,8.95880925 28.5851004,8.57058932 28.5851004,7.98821455 C28.5851004,7.2246974 29.0965297,6.95291652 30.3688535,6.95291652 L30.5809075,6.95291652 L30.5809075,8.44118267 Z M36.9385042,9.99410727 L38.62248,9.99410727 L36.2399761,6.48707055 L38.3355606,3.48469282 L36.8387269,3.48469282 L34.7431423,6.48707055 L34.7431423,3.48469282 L33.2587646,3.48469282 L33.2587646,9.99410727 L34.7431423,9.99410727 L34.7431423,6.79761958 L36.9385042,9.99410727 Z M43.5379541,4.7011781 L43.5379541,3.48469282 L38.5610652,3.48469282 L38.5610652,4.7011781 L40.3074073,4.7011781 L40.3074073,9.99410727 L41.791785,9.99410727 L41.791785,4.7011781 L43.5379541,4.7011781 Z M44.4167908,3.48469282 L44.4167908,9.99410727 L45.7017436,9.99410727 L47.9970126,5.96939911 L47.9970126,9.99410727 L49.4437198,9.99410727 L49.4437198,3.48469282 L48.1591995,3.48469282 L45.8639305,7.50940099 L45.8639305,3.48469282 L44.4167908,3.48469282 Z M54.3698766,9.99410727 L56.0540253,9.99410727 L53.6713916,6.48707055 L55.7672789,3.48469282 L54.2704019,3.48469282 L52.1745147,6.48707055 L52.1745147,3.48469282 L50.6901802,3.48469282 L50.6901802,9.99410727 L52.1745147,9.99410727 L52.1745147,6.79761958 L54.3698766,9.99410727 Z M57.3601705,12 C58.7445979,12 59.2562435,10.9776247 59.6800919,9.64470036 L61.6384447,3.48469282 L60.20428,3.48469282 L58.8194201,8.37647935 L57.4349927,3.48469282 L55.875836,3.48469282 L58.0335705,10.2788109 C57.8713836,10.5894048 57.6343745,10.7835147 57.2230685,10.7835147 C56.948432,10.7835147 56.7114229,10.6929211 56.549236,10.5247014 L56.549236,11.7799997 C56.549236,11.7799997 56.7737027,12 57.3601705,12 Z M67.5528603,9.99410727 L69,9.99410727 L68.9749151,3.48469282 L66.9417401,3.48469282 L65.5819651,7.81999488 L64.3597246,3.48469282 L62.2015576,3.48469282 L62.2015576,9.99410727 L63.4614255,9.99410727 L63.4614255,5.12821105 L64.8212004,9.99410727 L66.031331,9.99410727 L67.5528603,5.12821105 L67.5528603,9.99410727 Z" id="Shape" fill-opacity="0.85" fill="#000000"></path>
            </g>
        </g>
    </g>
</svg>