<svg width="13" height="13" viewBox="0 0 13 13" fill="none" xmlns="http://www.w3.org/2000/svg">
  <path d="M10.125 0H2.875C1.28718 0 0 1.28718 0 2.875V10.125C0 11.7128 1.28718 13 2.875 13H10.125C11.7128 13 13 11.7128 13 10.125V2.875C13 1.28718 11.7128 0 10.125 0Z" fill="black"/>
  <path d="M10.125 4.375H9.15625V10.2812H10.125V4.375Z" fill="white"/>
  <path d="M10.125 4.375H9.15625V10.2812H10.125V4.375Z" fill="white"/>
  <path d="M3.875 4.375H2.90625V10.2812H3.875V4.375Z" fill="white"/>
  <path d="M3.875 4.375H2.90625V10.2812H3.875V4.375Z" fill="white"/>
  <path d="M8.8125 3.75V2.78125L4.1875 2.78125V3.75L8.8125 3.75Z" fill="white"/>
  <path d="M8.8125 3.75V2.78125L4.1875 2.78125V3.75L8.8125 3.75Z" fill="white"/>
</svg>
